<?xml version="1.0" encoding="utf-8"?>
<!-- Generator: Adobe Illustrator 19.2.1, SVG Export Plug-In . SVG Version: 6.00 Build 0)  -->
<svg version="1.1" id="Untitled-2_xA0_Image_1_" xmlns="http://www.w3.org/2000/svg" xmlns:xlink="http://www.w3.org/1999/xlink"
	 x="0px" y="0px" viewBox="0 0 120 49.5" style="enable-background:new 0 0 120 49.5;" xml:space="preserve">
<style type="text/css">
	.st0{fill:#FFFFFF;}
</style>
<g>
	<path class="st0" d="M95.5,27.2c0.4,0,0.9,0,1.4,0c0.1,0.5,0.1,0.9,0.2,1.5c0.5,0,0.9,0,1.4,0c0,1,0,2.1,0,3.2c0.6,0,1,0,1.4,0
		c0,1.7,0,3.3,0,5c0.6,0,1,0,1.4,0c0,0.5,0,1,0,1.6c0.5,0,1,0.1,1.4,0.1c0,1,0,2.1,0,3.1c0.6,0,1,0,1.5,0c0,0.5,0,1,0,1.5
		c0.5,0,1,0,1.3,0c0-0.5,0-1,0-1.5c-0.5,0-0.9,0-1.4,0c0-1,0-2,0-3.1c-0.6,0-1,0-1.5,0c0-0.5,0-1.1,0-1.6c-0.5,0-1,0-1.4,0
		c0-1.7,0-3.4,0-5c0.5,0,1,0,1.5,0c0,1.1,0,2.3,0,3.4c0.6,0,1,0,1.4,0c0,0.5,0,1,0,1.6c0.5,0,1,0.1,1.4,0.1c0,0.5,0.1,1,0.1,1.5
		c0.5,0,1,0,1.4,0c0,0.5,0,1,0,1.5c0.5,0,1,0,1.3,0c0-0.5,0-1,0-1.5c-0.5,0-0.9,0-1.4,0c0-0.5,0-1,0-1.6c-0.6,0-1,0.1-1.5,0.1
		c0-0.5,0-1.1,0-1.6c-0.5,0-1,0-1.4,0c0-1.1,0-2.3,0-3.4c-0.6,0-1,0-1.4,0c0-0.5,0-1,0-1.6c-0.5,0-1,0-1.4,0c0-0.5,0-1,0-1.6
		c-1,0-2,0-2.9,0c0-0.5,0-1,0-1.5c1.5,0,2.8,0,4.3,0c0,0.5,0.1,0.9,0.1,1.4c0.4,0,0.8,0.1,1.3,0.1c0.1,0.5,0.1,0.9,0.2,1.5
		c0.5,0,0.9,0.1,1.4,0.1l0,0c0,1.1,0,2.2,0,3.4c0.6,0,1.1,0,1.5,0c0,0.5,0,1.1,0,1.6c0.5,0,1,0,1.4,0c0,0.5,0,1,0,1.5
		c1.5,0,2.9,0,4.4,0c0,0.5,0,1.1,0,1.6c0.5,0,1,0,1.4,0c0,0.5,0,1,0,1.5c0.5,0,1,0,1.3,0c0-0.5,0-1,0-1.5c-0.5,0-0.9,0-1.4,0
		c0-0.5,0-1,0-1.6c-0.5,0-1-0.1-1.4-0.1c0-0.5,0-0.9-0.1-1.5c-1.5,0-2.9,0-4.3,0c0-0.5,0-1,0-1.6c-0.5,0-1-0.1-1.4-0.1
		c0-1.1,0-2.3,0-3.4l0,0c0.5,0,1,0,1.5,0l0,0c0,0.5,0,1,0,1.6c0.6,0,1,0,1.5,0c0,0.6,0,1.2,0,1.8c1,0,1.9,0,2.8,0c0-0.6,0-1.2,0-1.8
		c0.5,0,1,0,1.5,0l0,0c0,0.6,0,1.2,0,1.9c0.6,0,1,0,1.5,0l0,0c0,1,0,2.1,0,3.2c0.6,0,1,0,1.5,0l0,0c0,0.5,0,1,0.1,1.5
		c0.5,0,0.9,0,1.4,0c0-0.6,0-1,0-1.5l0,0c0.5,0,1,0,1.5,0c0,2.1,0,4.2,0,6.3c-0.5,0-0.9,0-1.4,0c0,0.6,0,1.1,0,1.6
		c0.5,0,0.9,0,1.4,0c0,6.9,0,13.7,0,20.6c-40,0-80.1,0-120.1,0C0,59.6,0,53.8,0,48c0.5,0,0.9,0,1.4,0c0-0.6,0-1.1,0-1.6
		c-0.5,0-0.9,0-1.4,0c0-1.6,0-3.2,0-4.7c0.5,0,0.9,0,1.4,0c0-1.2,0-2.2,0-3.2c0.5,0,0.9,0,1.4,0c0-0.6,0-1,0-1.5c-0.5,0-0.9,0-1.4,0
		c0,0.6,0,1,0,1.5c-0.5,0-1,0-1.5,0c0-1.1,0-2.1,0-3.2c0.5,0,0.9,0,1.5,0c0-1.3,0-2.4,0-3.4c0,0,0,0,0,0c0.5,0,1,0,1.5,0
		c0,1.1,0,2.3,0,3.4c0.6,0,1,0,1.4,0c0,1,0,2.1,0,3.2c0.6,0,1,0,1.4,0c0,0.5,0,1,0,1.5c0.5,0,1,0,1.4,0c0-0.6,0-1,0-1.5
		c0.5,0,1,0,1.5,0c0,0.5,0,1,0,1.5c0.5,0,1,0,1.4,0c0-0.6,0-1,0-1.5c0.5,0,0.9,0,1.4,0c0-0.6,0-1.1,0-1.6c0.5,0,1,0,1.5-0.1
		c0,0.5,0,1.1,0,1.6c0.5,0,1,0,1.4,0c0,0.5,0,1,0,1.5c0.5,0,0.9,0,1.3,0c0-0.5,0-1,0-1.5c-0.5,0-0.9,0-1.4,0c0-0.5,0-1,0-1.6
		c-0.5,0-1-0.1-1.4-0.1c0-0.5-0.1-1-0.1-1.5c-0.5,0-1,0-1.4,0c0-0.5,0-1,0-1.5c-0.5-0.1-0.9-0.1-1.4-0.2c0-0.6-0.1-1.2-0.1-1.7
		c-0.5,0-1,0-1.4,0c0-0.5,0-1,0-1.6c-0.5,0-1,0-1.4,0c0-1.6,0-3.2,0-4.8c0.5,0,1,0,1.5,0c0,1,0,2.1,0,3.1c0.5,0.1,0.9,0.1,1.4,0.2
		c0.1,0.5,0.1,1,0.2,1.5c0.5,0,0.9,0,1.4,0c0,0.5,0,1,0,1.6c0.5,0,1,0,1.4,0c0,0.6,0,1.2,0,1.9c0.6,0,1-0.1,1.5-0.1
		c0,0.5,0,1.1,0,1.6c0.5,0,1,0,1.4,0c0,0.5,0,1,0,1.5c0.5,0,1,0,1.3,0c0-0.5,0-1,0-1.5c-0.5,0-0.9,0-1.4,0c0-0.5,0-1,0-1.6
		c-0.5,0-1-0.1-1.4-0.1c0-0.6,0-1.2,0-1.8c1,0,1.9,0,2.9,0c0,0.6,0,1.2,0,1.8c0.5,0,1,0,1.4,0c0,0.5,0,1,0,1.6c0.5,0,1,0,1.4,0
		c0,0.5,0,1.1,0,1.6c-0.5,0-0.9,0-1.4,0c0,0.6,0,1.1,0,1.6c-0.5,0-0.9,0-1.4,0c0,0.6,0,1,0,1.5c0.5,0,0.9,0.1,1.3,0.1
		c0,0.5,0.1,1,0.1,1.5c0.5,0,1,0,1.4,0c0,0.5,0,1,0,1.5c0.5,0,1,0,1.3,0c0-0.5,0-1,0-1.5c-0.5,0-0.9,0-1.4,0c0-0.5,0-1,0-1.6
		c-0.6,0-1,0.1-1.5,0.1c0-0.6,0-1.1,0-1.7c0.5,0,0.9,0,1.4,0c0-0.6,0-1.1,0-1.6c0.4,0,0.9,0,1.4,0c0-0.6,0-1.1,0-1.6
		c0.5,0,1,0,1.4,0.1c0,0.5,0.1,1,0.1,1.5c0.5,0,1,0,1.4,0c0,0.5,0,1,0,1.5c0.5,0,1,0,1.3,0c0-0.5,0-1,0-1.5c-0.5,0-0.9,0-1.4,0
		c0-0.5,0-1,0-1.6c-0.6,0-1,0.1-1.5,0.1c0-0.5,0-1.1,0-1.6c-0.5,0-1,0-1.4,0c0-0.6,0-1.3,0-1.9c0.5,0,0.9,0,1.5,0c0-0.6,0-1.1,0-1.6
		l0,0c0.5,0,1,0,1.5,0l0,0c0,1.1,0,2.3,0,3.5c0.6,0,1,0,1.5,0l0,0c0,0.5,0,1,0,1.6c0.6,0,1,0,1.5,0c0,0.5,0,1,0,1.5c0.5,0,1,0,1.4,0
		c0-0.6,0-1,0-1.5c0.6,0,1.1,0,1.7,0c0,1,0,2.1,0,3.2c0.6,0,1,0,1.4,0c0,1,0,2.1,0,3.1c0.5,0,0.9,0,1.3,0c0-1.1,0-2,0-3.1
		c-0.5,0-0.9,0-1.4,0c0-1,0-2.1,0-3.2c-0.6,0-1,0-1.4,0c0-0.5,0-1,0-1.6c-0.6,0-1.2,0-1.7,0c0-0.6,0-1.3,0-1.9l0,0
		c0.5,0,1.1,0,1.7,0c0-0.6,0-1.1,0-1.6c0.5,0,0.9,0,1.5,0c0-1.7,0-3.2,0-4.7l0,0c0.5,0,1,0,1.5,0l0,0c0,2.1,0,4.2,0,6.4
		c-0.5,0-0.9,0-1.4,0c0,0.7,0,1.2,0,1.8c0.5,0,0.9,0.1,1.3,0.1c0,1,0,2.1,0,3.1c0.6,0,1,0,1.5,0c0,0.5,0,1,0,1.5c0.5,0,0.9,0,1.3,0
		c0-0.5,0-1,0-1.5c-0.5,0-0.9,0-1.4,0c0-1,0-2,0-3.1c-0.6,0-1,0-1.5,0c0-0.6,0-1.3,0-1.9c1,0,1.9,0,2.9,0c0,0.6,0,1.2,0,1.8
		c0.5,0.1,1,0.1,1.5,0.2c0,1,0,2,0,3c0.5,0,0.9,0,1.3,0c0-1.7,0-3.3,0-4.9c-1,0-1.9,0-2.8,0c0-0.5,0-1,0-1.5c-0.5-0.1-1-0.1-1.4-0.2
		c0-1.6,0-3.1,0-4.7l0,0c0.5,0,1,0,1.5,0l0,0c0,1,0,2.1,0,3.1c0.6,0.1,1,0.1,1.4,0.2c0.1,0.5,0.1,1,0.2,1.5c1,0,1.9,0,2.8,0
		c0,1.1,0,2.3,0,3.4c0.6,0,1,0,1.4,0c0,0.5,0,1.1,0,1.6c-0.5,0-0.9,0.1-1.4,0.1c0,0.6,0,1,0.1,1.4c0.5,0,0.9,0,1.3,0
		c0-0.6,0-1.1,0-1.6c0.5,0,1,0,1.5,0c0-0.6,0-1-0.1-1.5c-0.5,0-1,0-1.4,0c0-1.2,0-2.3,0-3.5c0.5,0,1,0,1.5,0l0,0c0,0.5,0,1,0,1.6
		c0.6,0,1,0,1.5,0l0,0c0,1.1,0,2.3,0,3.4c0.6,0,1,0,1.5,0c0,0.5,0,1,0,1.5c1.1,0,2,0,2.9,0c0,0.5,0,1.1,0,1.6c0.5,0,1,0,1.4,0
		c0,0.5,0,1,0,1.5c0.5,0,0.9,0,1.3,0c0-0.5,0-1,0-1.5c-0.5,0-0.9,0-1.4,0c0-0.5,0-1.1,0-1.6c0.5,0,0.9,0,1.4,0c0-0.6,0-1,0-1.5
		c-0.5,0-0.9,0-1.3,0c0,0.6,0,1,0,1.5c-0.5,0-1,0-1.4,0c0-0.5,0-0.9-0.1-1.5c-1,0-1.9,0-2.9,0c0-1.2,0-2.3,0-3.5l0,0
		c0.5,0,1,0,1.5,0l0,0c0,0.6,0,1.2,0,1.8c1.1,0,2,0,2.9,0c0-0.6,0-1.2,0-1.8l0,0c0.5,0,1,0,1.5,0c0,0.6,0,1.2,0,1.8
		c0.5,0,1,0.1,1.4,0.1c0,1,0,2.1,0,3.1c0.6,0,1,0,1.4,0c0-1,0-2,0-3c-0.5,0-1,0-1.4,0c0-0.6,0-1.3,0-1.9c1,0,1.9,0,2.9,0
		c0-0.6,0-1.1,0-1.6l0,0c0.5,0,1,0,1.5,0c0,1.2,0,2.3,0.1,3.5c-0.5,0-0.9,0-1.4,0c0,1,0,2.1,0,3.1c0.5,0,0.9,0,1.4,0
		c0,0.5,0,1.1,0,1.6c-0.5,0-0.9,0-1.4,0c0,0.6,0,1,0,1.5c0.5,0,0.9,0.1,1.3,0.1c0,0.5,0.1,1,0.1,1.5c0.5,0,1,0,1.4,0
		c0,0.5,0,1,0,1.5c0.5,0,0.9,0,1.3,0c0-0.5,0-1,0-1.5c-0.5,0-0.9,0-1.4,0c0-0.5,0-1,0-1.6c-0.6,0-1,0.1-1.5,0.1c0-0.6,0-1.1,0-1.7
		c0.5,0,0.9,0,1.4,0c0-0.6,0-1,0-1.5c-0.5,0-0.9,0-1.4,0c0-1.1,0-2.1,0.1-3.2c0.4,0,0.9,0,1.3-0.1c0-1.1,0-2.2,0-3.4
		c-0.5,0-0.9,0-1.4,0c0-1,0-2.1,0-3.1c-0.5-0.1-1-0.1-1.4-0.2c0-0.5,0-1,0-1.5l0,0c1,0,1.9,0,2.9,0l0,0c0,1,0,2.1,0,3.2
		c1,0,1.9,0,2.9,0c0,0.6,0,1.1,0,1.5c-0.4,0-0.9,0-1.3,0.1c0,2.2,0,4.3,0,6.5c1,0,1.9,0,2.8,0c0,0.5,0,1,0,1.6c1,0,1.9,0,2.8,0
		c0,0.5,0,0.9,0.1,1.5c0.5,0,0.9,0.1,1.4,0.1c0,1,0,2,0,3c0.5,0,0.9,0,1.3,0c0-1.6,0-3.1,0-4.6c-1,0-1.9,0-2.8,0c0-0.5,0-1,0-1.6
		c-1,0-1.9,0-2.8,0c0-0.5,0-1,0-1.5c-0.5,0-0.9-0.1-1.5-0.1c0-1.7,0-3.4,0-5c0.5,0,0.9,0,1.5,0c0-1.1,0-2.1,0-3.1c0,0,0,0,0,0
		c0.5,0,1,0,1.5,0c0,1,0,2.1,0,3.2c0.6,0,1,0,1.4,0c0,0.5,0,1.1,0,1.6c-0.9,0-1.9,0-2.8,0c0,0.7,0,1.2,0,1.7c1,0,1.9,0,2.9,0
		c0,0.5,0,1.1,0,1.6c0.5,0,1,0,1.4,0c0,0.5,0,1,0,1.5c0.5,0,0.9,0,1.3,0c0-0.5,0-1,0-1.5c-0.5,0-0.9,0-1.4,0c0-0.5,0-1,0-1.6
		c-0.5,0-1-0.1-1.4-0.1c0-0.6,0-1.2,0-1.8c0.5,0,0.9,0,1.4,0c0-0.6,0-1.1,0-1.6c0.5,0,1,0,1.5,0c0,1.1,0,2.3,0,3.4c0.6,0,1,0,1.4,0
		c0,1.6,0,3.1,0,4.7c0.6,0,1,0,1.4,0c0,0.5,0,1,0,1.5c0.5,0,1,0,1.3,0c0-0.5,0-1,0-1.5c-0.5,0-0.9,0-1.4,0c0-1.6,0-3.1,0-4.7
		c-0.6,0-1,0-1.4,0c0-1.2,0-2.3,0-3.5c0.5,0,1,0,1.5,0c0,0.5,0,1,0,1.6c0.5,0,1,0,1.4,0c0,0.6,0,1.2,0,1.8c0.5,0,1,0.1,1.4,0.1
		c0,1,0,2.1,0,3.1c0.6,0,1,0,1.4,0c0-1,0-2,0-3c-0.5,0-1,0-1.4,0c0-0.6,0-1.3,0-1.9c0.5,0,0.9,0,1.5,0c0-0.6,0-1.1,0-1.6l0,0
		c0.5,0,1,0,1.4,0c0,2.2,0,4.3,0,6.5c0.6,0,1,0,1.4,0c0-2.2,0-4.3,0-6.5c-0.5,0-1,0-1.4,0c0-1.6,0-3.2,0.1-4.8l0,0c0.5,0,1,0,1.5,0
		l0,0c0,1,0,2.1,0,3.2c0.6,0,1,0,1.5,0c0,1,0,2.1,0,3.2c0.6,0,1,0,1.4,0c0,0.6,0,1.2,0,1.8c-0.4,0-0.9,0-1.4,0.1c0,1,0,2,0,3
		c0.5,0,1,0,1.4,0c0,0.5,0,1.1,0,1.6c0.5,0,1,0,1.4,0c0,0.5,0,1,0,1.5c0.5,0,1,0,1.3,0c0-0.5,0-1,0-1.5c-0.5,0-0.9,0-1.4,0
		c0-0.5,0-1.1,0-1.6c0.5,0,0.9,0,1.4,0c0-0.6,0-1,0-1.5c-0.5,0-0.9,0-1.4,0c0,0.6,0,1,0,1.5c-0.5,0-1,0-1.4-0.1
		c0-1.1-0.1-2.1-0.1-3.2c0.5,0,1,0,1.5,0c0-0.7,0-1.2,0-1.8c0.5,0,1,0,1.5,0c0,0.6,0,1.2,0,1.8c0.5,0,1,0,1.4,0c0,0.5,0,1,0,1.5
		c0.5,0,0.9,0.1,1.4,0.1c0,0.6,0.1,1.1,0.1,1.6c-0.5,0-1,0-1.5,0c0,0.6,0,1,0.1,1.5c0.5,0,1,0,1.4,0c0,0.5,0,1,0,1.5
		c0.5,0,1,0,1.3,0c0-0.5,0-1,0-1.5c-0.5,0-0.9,0-1.4,0c0-0.5,0-1,0.1-1.6c1,0,2.1,0,3.1,0c0,0.5,0,1,0,1.6c0.5,0,1,0.1,1.4,0.1
		c0,1,0,2.1,0,3.1c0.6,0,1,0,1.4,0c0-1,0-2,0-3c-0.5,0-1,0-1.4,0c0-0.5,0-1.1,0-1.6c-0.5,0-1,0-1.4,0c0-0.5,0-1,0-1.5
		c-0.6-0.1-1.1-0.1-1.6-0.1c-0.1-0.5-0.1-1-0.2-1.5c-1,0-1.9,0-2.8,0c0-0.6,0-1.3,0-1.9c0.9,0,1.9,0,2.8,0c0-0.6,0-1,0-1.5
		c-0.5-0.1-0.9-0.1-1.4-0.2c0-1.1,0-2.1,0-3.1c0.5,0,1,0,1.5,0l0,0c0,0.5,0,1,0.1,1.5c0.6,0.1,1.1,0.1,1.6,0.1
		c0.1,0.5,0.1,1,0.2,1.5c0.5,0,0.9,0,1.4,0c0,0.5,0,1.1,0,1.6c-0.5,0-0.9,0-1.4,0c0,0.7,0,1.2,0,1.8c0.5,0,1,0,1.4-0.1
		c0,0.5,0,1.1,0,1.6c0.5,0,1,0,1.4,0c0,0.5,0,1,0,1.6c0.5,0,1,0,1.4,0c0,0.5,0,1,0,1.5c0.5,0,0.9,0,1.3,0c0-0.5,0-1,0-1.5
		c-0.5,0-0.9,0-1.4,0c0-0.5,0-1,0-1.6c-0.5,0-1,0-1.4,0c0-0.5,0-1,0-1.6c-0.5,0-1-0.1-1.4-0.1c0-0.6,0-1.2,0-1.8c0.5,0,0.9,0,1.4,0
		c0-0.6,0-1.1,0-1.6c0.5,0,1,0,1.4,0.1c0,1.1,0,2.2,0,3.4c0.6,0,1,0,1.5,0c0,0.5,0,1,0,1.5c0.5,0,1,0,1.3,0c0-0.5,0-1,0-1.5
		c-0.5,0-0.9,0-1.4,0c0-1.1,0-2.2,0-3.4c-0.6,0-1,0-1.5,0C95.5,29.3,95.5,28.2,95.5,27.2L95.5,27.2z M108.5,43.3c0-0.5,0-1,0-1.5
		c-0.5,0-1,0-1.3,0c0,0.5,0,1,0,1.5C107.7,43.2,108.1,43.2,108.5,43.3c0,0.5,0,1,0,1.5c0.5,0,0.9,0,1.3,0c0-0.5,0-1,0-1.5
		C109.4,43.3,108.9,43.3,108.5,43.3z M63.6,43.3c0-0.5,0-1,0-1.5c-0.5,0-1,0-1.3,0c0,0.5,0,1,0,1.5C62.8,43.2,63.2,43.2,63.6,43.3
		c0,0.5,0,1,0,1.5c0.5,0,0.9,0,1.3,0c0-0.5,0-1,0-1.5C64.5,43.3,64,43.3,63.6,43.3z M53.5,43.3c0-0.5,0-1,0-1.5c-0.5,0-0.9,0-1.3,0
		c0,0.5,0,1,0,1.5C52.7,43.2,53.1,43.2,53.5,43.3c0,0.5,0,1,0,1.5c0.5,0,0.9,0,1.3,0c0-0.5,0-1,0-1.5C54.4,43.3,53.9,43.3,53.5,43.3
		z M44.9,43.3c0-0.5,0-1,0-1.5c-0.5,0-0.9,0-1.3,0c0,0.5,0,1,0,1.5C44,43.2,44.5,43.2,44.9,43.3c0,0.5,0,1,0,1.5c0.5,0,1,0,1.4,0
		c0-0.6,0-1,0-1.5c0.5,0,0.9,0,1.4,0c0-0.6,0-1,0-1.5c-0.5,0-0.9,0-1.4,0c0,0.6,0,1,0,1.5C45.8,43.3,45.3,43.3,44.9,43.3z
		 M112.9,41.6c0,0.5,0,1,0,1.5c0.5,0,1,0,1.3,0c0-0.5,0-1,0-1.5C113.7,41.7,113.3,41.7,112.9,41.6c0-0.5,0-1,0-1.5
		c-0.5,0-1-0.1-1.4-0.1c0-0.5-0.1-1-0.1-1.6c-0.5,0-0.9,0-1.3,0.1c0,0.6,0,1,0,1.4c0.5,0,1,0,1.4,0c0,0.5,0,1.1,0,1.6
		C112,41.6,112.4,41.6,112.9,41.6z M27.3,40.1c-0.5,0-0.9,0-1.4,0c0,0.6,0,1,0,1.5c0.5,0,0.9,0,1.4,0c0,0.5,0,1,0,1.5
		c0.5,0,1,0,1.3,0c0-0.5,0-1,0-1.5c-0.5,0-0.9,0-1.4,0C27.3,41.1,27.3,40.6,27.3,40.1c0.4,0,0.9,0,1.4,0c0-0.6,0-1,0-1.5
		c-0.5,0-0.9,0-1.4,0C27.3,39.2,27.3,39.6,27.3,40.1z M23,40.1c0-0.5,0-1,0-1.5c-0.5,0-1,0-1.3,0c0,0.5,0,1,0,1.5
		C22.2,40.1,22.6,40.1,23,40.1c0,0.5,0,1,0,1.5c0.5,0,0.9,0,1.3,0c0-0.5,0-1,0-1.5C23.9,40.1,23.4,40.1,23,40.1z M12.9,41.6
		c0,0.5,0,1,0,1.5c0.5,0,0.9,0,1.3,0c0-0.5,0-1,0-1.5C13.8,41.7,13.3,41.7,12.9,41.6c0-0.5,0-1,0-1.5c-0.5,0-0.9,0-1.3,0
		c0,0.5,0,1,0,1.5C12.1,41.6,12.5,41.6,12.9,41.6z M49.2,51.1c0,0.5,0,1.1,0,1.6c0.5,0,1,0,1.4,0c0,0.5,0,1,0,1.5c0.5,0,0.9,0,1.3,0
		c0-0.5,0-1,0-1.5c-0.5,0-0.9,0-1.4,0c0-0.5,0-1,0-1.6C50.1,51.2,49.6,51.1,49.2,51.1c-0.1-0.5-0.1-1-0.1-1.5c-0.5,0-0.9,0-1.3,0.1
		c0,0.6,0,1,0,1.4C48.3,51.1,48.8,51.1,49.2,51.1z M23,46.4c0-0.5,0-1,0-1.5c-0.5,0-1,0-1.3,0c0,0.5,0,1,0,1.5
		C22.2,46.4,22.6,46.4,23,46.4c0,0.5,0,1,0,1.5c0.5,0,0.9,0,1.3,0c0-0.5,0-1,0-1.5C23.9,46.4,23.4,46.4,23,46.4z M10,46.4
		c0-0.5,0-1,0-1.5c-0.5,0-0.9,0-1.3,0c0,0.5,0,1,0,1.5C9.2,46.4,9.6,46.4,10,46.4c0,0.5,0,1,0,1.5c0.5,0,0.9,0,1.3,0
		c0-0.5,0-1,0-1.5C10.9,46.4,10.5,46.4,10,46.4z M5.7,46.4c0-0.5,0-1,0-1.5c-0.5,0-0.9,0-1.3,0c0,0.5,0,1,0,1.5
		C4.9,46.4,5.3,46.4,5.7,46.4c0,0.5,0,1,0,1.5c0.5,0,0.9,0,1.3,0c0-0.5,0-1,0-1.5C6.6,46.4,6.1,46.4,5.7,46.4z M95.5,44.9
		c0-0.5,0-1,0-1.5c-0.5,0-1,0-1.3,0c0,0.5,0,1,0,1.5C94.7,44.8,95.1,44.8,95.5,44.9c0,0.5,0,1,0,1.5c0.5,0,1,0.1,1.4,0.1
		c0,0.5,0.1,1,0.1,1.6c0.5,0,0.9,0,1.3-0.1c0-0.6,0-1,0-1.4c-0.5,0-1,0-1.4,0c0-0.5,0-1.1,0-1.6C96.4,44.9,96,44.9,95.5,44.9z
		 M75.1,44.9c0-0.5,0-1,0-1.5c-0.5,0-1,0-1.3,0c0,0.5,0,1,0,1.5C74.3,44.8,74.7,44.8,75.1,44.9c0,0.5,0,1,0,1.5c0.5,0,1,0.1,1.4,0.1
		c0,0.5,0.1,1,0.1,1.6c0.5,0,0.9,0,1.3-0.1c0-0.6,0-1,0-1.4c-0.5,0-1,0-1.4,0c0-0.5,0-1.1,0-1.6C76,44.9,75.5,44.9,75.1,44.9z
		 M114.3,49.6c0,0.5,0,1,0,1.5c0.5,0,1,0,1.3,0c0-0.5,0-1,0-1.5C115.1,49.6,114.7,49.6,114.3,49.6c0-0.5,0-1,0-1.5
		c-0.5,0-0.9,0-1.3,0c0,0.5,0,1,0,1.5C113.4,49.6,113.9,49.6,114.3,49.6z M54.9,48c0-0.5,0-1,0-1.5c-0.5,0-0.9,0-1.3,0
		c0,0.5,0,1,0,1.5C54.1,48,54.5,48,54.9,48c0,0.5,0,1,0,1.5c0.5,0,0.9,0,1.3,0c0-0.5,0-1,0-1.5C55.8,48,55.4,48,54.9,48z M34.8,48
		c0-0.5,0-1,0-1.5c-0.5,0-0.9,0-1.3,0c0,0.5,0,1,0,1.5C33.9,48,34.4,48,34.8,48c0,0.5,0,1,0,1.5c0.5,0,0.9,0,1.3,0c0-0.5,0-1,0-1.5
		C35.6,48,35.2,48,34.8,48z M27.3,48c0-0.5,0-1,0-1.5c-0.5,0-1,0-1.3,0c0,0.5,0,1,0,1.5C26.5,48,26.9,48,27.3,48c0,0.5,0,1,0,1.5
		c0.5,0,0.9,0,1.3,0c0-0.5,0-1,0-1.5C28.2,48,27.8,48,27.3,48z M85.2,46.4c0-0.5,0-1,0-1.5c-0.5,0-1,0-1.3,0c0,0.5,0,1,0,1.5
		C84.4,46.4,84.8,46.4,85.2,46.4c0,0.5,0,1,0,1.5c0.5,0,0.9,0,1.3,0c0-0.5,0-1,0-1.5C86.1,46.4,85.6,46.4,85.2,46.4z M80.9,46.4
		c0-0.5,0-1,0-1.5c-0.5,0-1,0-1.3,0c0,0.5,0,1,0,1.5C80.1,46.4,80.5,46.4,80.9,46.4c0,0.5,0,1,0,1.5c0.5,0,0.9,0,1.3,0
		c0-0.5,0-1,0-1.5C81.7,46.4,81.3,46.4,80.9,46.4z M65.1,48c0,0.5,0,1,0,1.5c0.5,0,1,0,1.3,0c0-0.5,0-1,0-1.5
		C65.9,48,65.5,48,65.1,48c0-0.5,0-1,0-1.5c-0.5,0-0.9,0-1.3,0c0,0.5,0,1,0,1.5C64.2,48,64.6,48,65.1,48z M89.5,46.4
		c0-0.5,0-1,0-1.5c-0.5,0-1,0-1.3,0c0,0.5,0,1,0,1.5C88.7,46.4,89.1,46.4,89.5,46.4c0,0.5,0,1,0,1.5c0.6,0,1.1,0,1.6,0
		c0-0.5,0-1,0-1.5C90.6,46.4,90,46.4,89.5,46.4z M39.1,41.6c0,0.5,0,1,0,1.5c0.5,0,0.9,0,1.3,0c0-0.5,0-1,0-1.5
		C39.9,41.7,39.5,41.7,39.1,41.6c0-1,0-2,0-3.1c-0.5,0-0.9,0-1.3,0c0,1.1,0,2,0,3.1C38.2,41.6,38.7,41.6,39.1,41.6z M78,41.6
		c0,0.5,0,1,0,1.5c0.5,0,1,0,1.3,0c0-0.5,0-1,0-1.5C78.9,41.7,78.4,41.7,78,41.6c0-1,0-2,0-3c-1,0-1.9,0-2.8,0c0,0.5,0,0.9,0,1.4
		c0.5,0,0.9,0.1,1.3,0.1c0.1,0.5,0.1,1,0.2,1.5C77.2,41.6,77.6,41.6,78,41.6z M69.4,48c0.5,0,0.9,0,1.3-0.1c0-1.1,0-2,0-3
		c-0.5,0-0.9,0-1.3,0C69.4,45.9,69.4,46.9,69.4,48z M98.5,38.6c0,1,0,2,0,3c0.5,0,0.9,0,1.3,0c0-1.1,0-2,0-3
		C99.3,38.6,98.9,38.6,98.5,38.6z M43.5,37c0,1,0,2,0,3c0.5,0,0.9,0,1.3,0c0-1.1,0-2,0-3C44.3,37,43.9,37,43.5,37z M91.2,49.7
		c-0.6,0-1.1,0-1.5,0c0,0.5,0,1,0,1.4c0.6,0,1,0,1.5,0C91.2,50.6,91.2,50.2,91.2,49.7z M91.2,41.7c-0.5,0-1,0-1.6,0c0,0.5,0,1,0,1.4
		c0.6,0,1.1,0,1.6,0C91.2,42.6,91.2,42.2,91.2,41.7z M101.3,47.9c0-0.6,0-1,0-1.5c-0.5,0-0.9,0-1.3,0c0,0.5,0,1,0,1.5
		C100.4,47.9,100.8,47.9,101.3,47.9z M102.8,47.9c0.5,0,0.9,0,1.3,0c0-0.5,0-1,0-1.4c-0.5,0-0.9,0-1.3,0
		C102.8,47,102.8,47.5,102.8,47.9z M105.7,46.5c0,0.5,0,1,0,1.4c0.5,0,0.9,0,1.3,0c0-0.5,0-0.9,0-1.4
		C106.6,46.5,106.2,46.5,105.7,46.5z M110,47.9c0.5,0,0.9,0,1.3,0c0-0.5,0-1,0-1.5c-0.5,0-0.9,0-1.3,0.1C110,47,110,47.4,110,47.9z
		 M14.4,49.5c0.5,0,0.9,0,1.3,0c0-0.5,0-1,0-1.5c-0.5,0-0.9,0-1.3,0.1C14.4,48.6,14.4,49,14.4,49.5z M43.5,48.1c0,0.6,0,1,0,1.4
		c0.5,0,0.9,0,1.3,0c0-0.5,0-1,0-1.4C44.3,48.1,43.9,48.1,43.5,48.1z M118.6,48.1c-0.5,0-0.9,0-1.3,0c0,0.5,0,0.9,0,1.4
		c0.5,0,0.9,0,1.3,0C118.6,49,118.6,48.6,118.6,48.1z M2.8,51.1c0-0.5,0-1,0-1.4c-0.5,0-0.9,0-1.3,0c0,0.5,0,0.9,0,1.4
		C1.9,51.1,2.3,51.1,2.8,51.1z M43.3,46.4c0-0.5,0-1,0-1.4c-0.5,0-0.9,0-1.3,0c0,0.5,0,0.9,0,1.4C42.5,46.4,42.9,46.4,43.3,46.4z
		 M50.7,46.4c0.5,0,0.9,0,1.3,0c0-0.5,0-1,0-1.4c-0.5,0-0.9,0-1.3,0C50.7,45.4,50.7,45.8,50.7,46.4z M112.9,46.3c0.5,0,0.9,0,1.3,0
		c0-0.5,0-1,0-1.4c-0.5,0-0.9,0-1.3,0C112.9,45.5,112.9,45.9,112.9,46.3z M47.7,47.9c0-0.5,0-1,0-1.4c-0.5,0-0.9,0-1.3,0
		c0,0.5,0,0.9,0,1.4C46.8,47.9,47.2,47.9,47.7,47.9z M59.2,47.9c0-0.5,0-1,0-1.4c-0.5,0-0.9,0-1.3,0c0,0.5,0,0.9,0,1.4
		C58.3,47.9,58.7,47.9,59.2,47.9z M62.1,47.9c0-0.6,0-1,0-1.5c-0.5,0-0.9,0-1.3,0c0,0.5,0,1,0,1.5C61.2,47.9,61.6,47.9,62.1,47.9z
		 M31.8,54.3c0-0.5,0-1,0-1.4c-0.5,0-0.9,0-1.3,0c0,0.5,0,1,0,1.4C31,54.3,31.4,54.3,31.8,54.3z M63.7,52.8c0,0.6,0,1,0,1.5
		c0.5,0,0.9,0,1.3,0c0-0.5,0-1,0-1.5C64.5,52.8,64.1,52.8,63.7,52.8z M78.1,54.2c0.5,0,0.9,0,1.3,0c0-0.5,0-1,0-1.4
		c-0.5,0-0.9,0-1.3,0C78.1,53.4,78.1,53.8,78.1,54.2z M2.8,54.4c-0.5,0-0.9,0-1.3,0c0,0.5,0,0.9,0,1.4c0.5,0,0.9,0,1.3,0
		C2.8,55.3,2.8,54.9,2.8,54.4z M11.5,55.8c0.5,0,0.9,0,1.3,0c0-0.5,0-0.9,0-1.4c-0.5,0-0.9,0-1.3,0C11.5,54.9,11.5,55.3,11.5,55.8z
		 M20.1,54.4c-0.5,0-0.9,0-1.3,0c0,0.5,0,1,0,1.4c0.5,0,0.9,0,1.3,0C20.1,55.3,20.1,54.9,20.1,54.4z M67.8,55.9c0-0.5,0-1,0-1.5
		c-0.5,0-0.9,0-1.4,0c0,0.5,0,1,0.1,1.5C67,55.9,67.4,55.9,67.8,55.9z M86.7,54.4c0,0.6,0,1,0,1.5c0.5,0,0.9,0,1.3,0
		c0-0.5,0-1,0-1.5C87.6,54.4,87.2,54.4,86.7,54.4z M8.6,57.4c0.5,0,0.9,0,1.3,0c0-0.5,0-1,0-1.5c-0.5,0-0.9,0-1.3,0.1
		C8.6,56.5,8.6,56.9,8.6,57.4z M40.5,57.4c0-0.6,0-1,0-1.5c-0.5,0-0.9,0-1.3,0c0,0.5,0,1,0,1.5C39.6,57.4,40,57.4,40.5,57.4z
		 M60.7,56c-0.5,0-0.9,0-1.3,0c0,0.5,0,1,0,1.4c0.5,0,0.9,0,1.3,0C60.7,56.9,60.7,56.5,60.7,56z M114.3,57.4c0.5,0,0.9,0,1.3,0
		c0-0.5,0-1,0-1.4c-0.5,0-0.9,0-1.3,0C114.3,56.4,114.3,56.9,114.3,57.4z M34.8,57.5c0,0.5,0,1,0,1.4c0.5,0,0.9,0,1.3,0
		c0-0.5,0-1,0-1.4C35.7,57.5,35.3,57.5,34.8,57.5z M107,59c0-0.5,0-1,0-1.4c-0.5,0-0.9,0-1.3,0c0,0.5,0,0.9,0,1.4
		C106.1,59,106.5,59,107,59z M52.1,59.1c0,0.5,0,1,0,1.4c0.5,0,0.9,0,1.3,0c0-0.5,0-1,0-1.4C52.9,59.1,52.6,59.1,52.1,59.1z
		 M98.4,60.6c0-0.6,0-1,0-1.4c-0.5,0-0.9,0-1.3,0c0,0.5,0,1,0,1.4C97.5,60.6,97.9,60.6,98.4,60.6z M76.6,60.7c0,0.5,0,1,0,1.4
		c0.5,0,0.9,0,1.3,0c0-0.5,0-1,0-1.4C77.5,60.7,77.1,60.7,76.6,60.7z M7.2,49.6c0,0.6,0,1,0,1.4c0.5,0,0.9,0,1.3,0c0-0.5,0-1,0-1.4
		C8,49.6,7.7,49.6,7.2,49.6z M12.8,51.1c0-0.5,0-1,0-1.5c-0.5,0-0.9,0-1.4,0c0,0.5,0,1,0.1,1.5C12,51.1,12.4,51.1,12.8,51.1z
		 M18.7,49.6c0,0.6,0,1,0,1.4c0.5,0,0.9,0,1.3,0c0-0.5,0-1,0-1.4C19.6,49.6,19.2,49.6,18.7,49.6z M39,49.7c-0.5,0-0.9,0-1.3,0
		c0,0.5,0,1,0,1.4c0.5,0,0.9,0,1.3,0C39,50.5,39,50.1,39,49.7z M72.2,49.7c-0.5,0-0.9,0-1.3,0c0,0.5,0,1,0,1.4c0.5,0,0.9,0,1.3,0
		C72.2,50.6,72.2,50.2,72.2,49.7z M111.3,49.7c-0.5,0-0.9,0-1.3,0c0,0.5,0,1,0,1.4c0.5,0,0.9,0,1.3,0
		C111.3,50.6,111.3,50.2,111.3,49.7z M24.5,52.7c0.5,0,0.9,0,1.3,0c0-0.5,0-1,0-1.4c-0.5,0-0.9,0-1.3,0
		C24.5,51.7,24.5,52.1,24.5,52.7z M40.6,52.7c0.5,0,0.9,0,1.3,0c0-0.5,0-1,0-1.4c-0.5,0-0.9,0-1.3,0C40.6,51.8,40.6,52.2,40.6,52.7z
		 M59.4,51.2c0,0.5,0,1,0,1.4c0.5,0,0.9,0,1.3,0c0-0.5,0-0.9,0-1.4C60.2,51.2,59.8,51.2,59.4,51.2z M76.5,52.7c0-0.5,0-1,0-1.4
		c-0.5,0-0.9,0-1.3,0c0,0.5,0,1,0,1.4C75.7,52.7,76.1,52.7,76.5,52.7z M83.8,52.7c0.5,0,0.9,0,1.3,0c0-0.5,0-1,0-1.4
		c-0.5,0-0.9,0-1.3,0C83.8,51.8,83.8,52.2,83.8,52.7z M92.7,52.6c0.5,0,0.9,0,1.3,0c0-0.5,0-1,0-1.5c-0.5,0-0.9,0-1.3,0.1
		C92.7,51.7,92.7,52.1,92.7,52.6z M97.1,51.2c0,0.6,0,1,0,1.4c0.5,0,0.9,0,1.3,0c0-0.5,0-1,0-1.4C97.9,51.2,97.5,51.2,97.1,51.2z
		 M101.4,51.2c0,0.5,0,1,0,1.4c0.5,0,0.9,0,1.3,0c0-0.5,0-1,0-1.4C102.2,51.2,101.8,51.2,101.4,51.2z M105.7,52.7c0.5,0,0.9,0,1.3,0
		c0-0.5,0-1,0-1.4c-0.5,0-0.9,0-1.3,0C105.7,51.7,105.7,52.1,105.7,52.7z M27.4,52.8c0,0.6,0,1,0,1.5c0.5,0,0.9,0,1.3,0
		c0-0.5,0-1,0-1.5C28.3,52.8,27.9,52.8,27.4,52.8z M2.9,40.1c0,0.5,0,1,0,1.4c0.5,0,0.9,0,1.3,0c0-0.5,0-0.9,0-1.4
		C3.8,40.1,3.4,40.1,2.9,40.1z M34.8,41.6c0.5,0,0.9,0,1.3,0c0-0.5,0-1,0-1.4c-0.5,0-0.9,0-1.3,0C34.8,40.6,34.8,41.1,34.8,41.6z
		 M96.9,41.6c0-0.5,0-1,0-1.4c-0.5,0-0.9,0-1.3,0c0,0.5,0,1,0,1.4C96.1,41.6,96.5,41.6,96.9,41.6z M118.6,40.2c-0.5,0-0.9,0-1.3,0
		c0,0.5,0,0.9,0,1.4c0.5,0,0.9,0,1.3,0C118.6,41.1,118.6,40.7,118.6,40.2z M7.1,41.7c-0.5,0-0.9,0-1.3,0c0,0.5,0,1,0,1.4
		c0.5,0,0.9,0,1.3,0C7.1,42.6,7.1,42.2,7.1,41.7z M10,43.2c0-0.6,0-1,0-1.5c-0.5,0-0.9,0-1.3,0c0,0.5,0,1,0,1.5
		C9.1,43.2,9.5,43.2,10,43.2z M15.9,41.7c0,0.5,0,1,0,1.4c0.5,0,0.9,0,1.3,0c0-0.5,0-0.9,0-1.4C16.7,41.7,16.4,41.7,15.9,41.7z
		 M41.9,40c0-0.6,0-1,0-1.5c-0.5,0-0.9,0-1.3,0c0,0.5,0,1,0,1.5C41.1,40,41.4,40,41.9,40z M47.7,38.6c-0.5,0-0.9,0-1.3,0
		c0,0.5,0,1,0,1.4c0.5,0,0.9,0,1.3,0C47.7,39.5,47.7,39.1,47.7,38.6z M53.6,38.6c0,0.6,0,1,0,1.5c0.5,0,0.9,0,1.3,0c0-0.5,0-1,0-1.5
		C54.4,38.6,54.1,38.6,53.6,38.6z M60.8,38.6c0,0.5,0,1,0,1.4c0.5,0,0.9,0,1.3,0c0-0.5,0-0.9,0-1.4C61.7,38.6,61.3,38.6,60.8,38.6z
		 M79.5,40c0.5,0,0.9,0,1.3,0c0-0.5,0-1,0-1.4c-0.5,0-0.9,0-1.3,0C79.5,39.1,79.5,39.5,79.5,40z M57.8,44.8c0-0.6,0-1,0-1.5
		c-0.5,0-0.9,0-1.3,0c0,0.5,0,1,0,1.5C56.9,44.8,57.3,44.8,57.8,44.8z M98.5,44.7c0.5,0,0.9,0,1.3,0c0-0.5,0-1,0-1.5
		c-0.5,0-0.9,0-1.3,0.1C98.5,43.8,98.5,44.2,98.5,44.7z M102.7,44.8c0-0.5,0-1,0-1.5c-0.5,0-0.9,0-1.4,0c0,0.5,0,1,0.1,1.5
		C101.9,44.8,102.2,44.8,102.7,44.8z M117.1,44.8c0-0.6,0-1,0-1.5c-0.5,0-0.9,0-1.3,0c0,0.5,0,1,0,1.5
		C116.2,44.8,116.6,44.8,117.1,44.8z M15.8,44.9c-0.5,0-0.9,0-1.3,0c0,0.5,0,0.9,0,1.4c0.5,0,0.9,0,1.3,0
		C15.8,45.8,15.8,45.4,15.8,44.9z M20.1,46.4c0-0.6,0-1,0-1.4c-0.5,0-0.9,0-1.3,0c0,0.5,0,1,0,1.4C19.2,46.4,19.6,46.4,20.1,46.4z
		 M31.8,44.9c-0.5,0-0.9,0-1.3,0c0,0.5,0,1,0,1.4c0.5,0,0.9,0,1.3,0C31.8,45.9,31.8,45.4,31.8,44.9z M39.2,46.3c0.5,0,0.9,0,1.3,0
		c0-0.5,0-1,0-1.4c-0.5,0-0.9,0-1.3,0C39.2,45.4,39.2,45.9,39.2,46.3z M49.2,43.2c0.5,0,0.9,0,1.3,0c0-0.5,0-0.9,0-1.4
		c-0.5,0-0.9,0-1.3,0C49.2,42.2,49.2,42.7,49.2,43.2z M72.2,41.8c-0.5,0-0.9,0-1.3,0c0,0.5,0,1,0,1.4c0.5,0,0.9,0,1.3,0
		C72.2,42.7,72.2,42.3,72.2,41.8z M81,41.7c0,0.5,0,1,0,1.5c0.5,0,0.9,0,1.4,0c0-0.5,0-1-0.1-1.5C81.8,41.7,81.4,41.7,81,41.7z
		 M83.8,43.2c0.5,0,0.9,0,1.3,0c0-0.5,0-1,0-1.4c-0.5,0-0.9,0-1.3,0C83.8,42.3,83.8,42.7,83.8,43.2z M88,41.7c-0.5,0-0.9,0-1.3,0
		c0,0.5,0,1,0,1.4c0.5,0,0.9,0,1.3,0C88,42.6,88,42.2,88,41.7z M2.8,44.8c0-0.5,0-1,0-1.4c-0.5,0-0.9,0-1.3,0c0,0.5,0,1,0,1.4
		C2,44.8,2.3,44.8,2.8,44.8z M25.8,44.8c0-0.5,0-1,0-1.4c-0.5,0-0.9,0-1.3,0c0,0.5,0,1,0,1.4C25,44.8,25.4,44.8,25.8,44.8z
		 M34.7,44.8c0-0.5,0-1,0-1.4c-0.5,0-0.9,0-1.3,0c0,0.5,0,1,0,1.4C33.9,44.8,34.3,44.8,34.7,44.8z M37.6,43.3c-0.5,0-0.9,0-1.3,0
		c0,0.5,0,1,0,1.4c0.5,0,0.9,0,1.3,0C37.6,44.2,37.6,43.8,37.6,43.3z"/>
	<path class="st0" d="M120.1,33.8c0,0.5,0,1.1,0,1.6c-0.5,0-0.9,0-1.5,0c0,0.6,0,1.1,0,1.6l0,0c-0.5,0-1,0-1.5,0l0,0
		c0-1,0-2.1,0-3.2c-0.6,0-1,0-1.5,0l0,0c0-0.6,0-1.3,0-1.9l0,0c1,0,1.9,0,2.9,0l0,0c0,0.6,0,1.2,0,1.9
		C119.2,33.8,119.6,33.8,120.1,33.8z"/>
	<path class="st0" d="M120.1,28.8c0,1.1,0,2.1,0,3.2c-0.5,0-1,0-1.5,0l0,0c0-0.5,0-1-0.1-1.5c-0.5-0.1-0.9-0.1-1.4-0.2
		c0-1.1,0-2.1,0-3.1c0.5,0,1,0,1.5,0l0,0c0,0.5,0,1,0.1,1.6C119.2,28.8,119.6,28.8,120.1,28.8z"/>
	<path class="st0" d="M1.4,16.1c-0.5,0-1,0-1.5,0c0-0.5,0-1.1,0-1.6c0.4,0,0.9,0,1.4,0C1.4,15.1,1.4,15.6,1.4,16.1z"/>
	<path class="st0" d="M1.4,27.2c-0.5,0-1,0-1.5,0c0-0.5,0-1.1,0-1.6c0.5,0,1,0,1.5,0c0,0,0,0,0,0C1.4,26.1,1.4,26.7,1.4,27.2
		L1.4,27.2z"/>
	<path class="st0" d="M0,30.3c0.5,0,1,0,1.5,0c0,0.5,0,1.1,0,1.6c0,0,0,0,0,0c-0.5,0-1,0-1.5,0C0,31.4,0,30.9,0,30.3z"/>
	<path class="st0" d="M120.1,27.2c-0.5,0-1,0-1.5,0c0,0,0,0,0,0c0-0.5,0-1.1,0-1.6l0,0c0.5,0,1,0,1.5,0
		C120.1,26.1,120.1,26.6,120.1,27.2z"/>
	<path class="st0" d="M0,22.4c0.4,0,0.9,0,1.4,0c0,0.6,0.1,1.1,0.1,1.6c-0.5,0-1,0-1.5,0C0,23.5,0,23,0,22.4z"/>
	<path class="st0" d="M120.1,20.8c-0.4,0-0.9,0-1.4,0c0-0.6,0-1.1-0.1-1.6c0.5,0,1,0,1.5,0C120.1,19.8,120.1,20.3,120.1,20.8z"/>
	<path class="st0" d="M0,8.2c0.4,0,0.9,0,1.4,0c0,0.5,0,1,0,1.6c-0.5,0-0.9,0-1.4,0C0,9.3,0,8.7,0,8.2z"/>
	<path class="st0" d="M120.1,24c-0.5,0-1,0-1.5,0c0-0.5,0-1,0-1.6c0.5,0,1,0,1.5,0C120.1,23,120.1,23.5,120.1,24z"/>
	<path class="st0" d="M110,27.2c0-0.5,0-1,0-1.5c0.4-0.1,0.9-0.1,1.4-0.2c0-0.5,0-1,0.1-1.5l0,0c0.5,0,0.9,0,1.5,0
		c0,1.1,0,2.1,0,3.1c0.6,0,1,0,1.4,0c0,0.5,0,1,0,1.5c0.5,0.1,1,0.1,1.4,0.2c0,1.1,0,2.1,0,3.1l0,0c-0.5,0-1,0-1.5,0l0,0
		c0-0.5,0-1,0-1.6c-0.6,0-1,0-1.5,0c0-0.5,0-1,0-1.5c-0.5-0.1-0.9-0.1-1.4-0.2c-0.1-0.5-0.1-1-0.2-1.5
		C110.8,27.2,110.4,27.2,110,27.2L110,27.2z"/>
	<path class="st0" d="M24.4,25.6c0.5,0,1,0,1.5,0l0,0c0,1,0,2.1,0,3.1c0.6,0.1,1,0.1,1.4,0.2c0.1,0.5,0.1,1,0.2,1.5
		c0.5,0,0.9,0,1.4,0c0,0.5,0,1.1,0,1.6l0,0c-0.5,0-0.9,0-1.4,0c0,0.7,0,1.3,0,1.9c-0.5,0-1,0-1.5,0l0,0c0-1.1,0-2.3,0-3.5
		c-0.6,0-1,0-1.5,0l0,0C24.5,28.8,24.5,27.2,24.4,25.6L24.4,25.6z"/>
	<path class="st0" d="M95.6,25.7c0-2.1,0-4.2,0-6.3c0.4,0,0.8,0,1.3,0c0,1.5,0,3,0,4.7c1.5,0,2.9,0,4.3,0c0,0.6,0,1,0,1.6
		C99.4,25.6,97.5,25.6,95.6,25.7C95.6,25.6,95.6,25.7,95.6,25.7z"/>
	<path class="st0" d="M105.7,27.2c-0.4,0-0.9,0-1.4,0c-0.1-0.5-0.1-1-0.2-1.5c-0.4,0-0.8-0.1-1.3-0.1c0-1,0-2,0-3.1
		c-1,0-1.9,0-2.9,0c0-0.6,0-1.1,0-1.7l0,0c1.4,0,2.8,0,4.4,0c0,1.1,0,2.1,0,3.1c0.5,0.1,0.9,0.1,1.4,0.2
		C105.6,25.2,105.6,26.2,105.7,27.2L105.7,27.2z"/>
	<path class="st0" d="M46.3,25.6c1,0,1.9,0,2.9,0c0,0,0,0,0,0c0,1.6,0,3.1,0,4.8c0.6,0,1,0,1.5,0l0,0c0,0.5,0,1.1,0,1.6l0,0
		c-1,0-1.9,0-2.9,0l0,0c0-1.6,0-3.1,0-4.7c-0.6-0.1-1-0.1-1.4-0.2C46.3,26.5,46.3,26.1,46.3,25.6L46.3,25.6z"/>
	<path class="st0" d="M43.4,25.6c0.5,0,1,0,1.5,0l0,0c0,1,0,2.1,0,3.1c0.6,0.1,1,0.1,1.4,0.2c0,1.1,0,2.1,0,3.1l0,0
		c-0.5,0-1,0-1.5,0l0,0c0-0.5,0-1,0-1.6c-0.6,0-1,0-1.5,0l0,0C43.4,28.8,43.4,27.2,43.4,25.6L43.4,25.6z"/>
	<path class="st0" d="M107.1,19.3c0.4,0,0.9,0,1.4,0c0,2.7,0,5.3,0,7.9l0,0c-0.5,0-1,0-1.5,0l0,0C107.1,24.5,107.1,21.9,107.1,19.3
		L107.1,19.3z"/>
	<path class="st0" d="M56.4,24c0-1,0-2,0-3.1c-1,0-1.9,0-2.8,0c0-0.6,0-1,0-1.6c1.4,0,2.7,0,4.2,0c0,1.5,0,3,0,4.7
		C57.3,24,56.8,24,56.4,24L56.4,24z"/>
	<path class="st0" d="M18.7,19.3c0.4,0,0.9,0,1.4,0c0,1,0,2,0,3.1c1,0,1.9,0,2.9,0c0,0.6,0,1.1,0,1.6l0,0c-1.4,0-2.8,0-4.3,0
		C18.7,22.4,18.7,20.8,18.7,19.3L18.7,19.3z"/>
	<path class="st0" d="M44.9,25.6c0-2.1,0-4.1,0-6.3c0.5,0,0.9,0,1.4,0c0,2.1,0,4.2,0,6.3c0,0,0,0,0,0C45.8,25.6,45.3,25.6,44.9,25.6
		L44.9,25.6z"/>
	<path class="st0" d="M53.5,25.6c0.5,0,1,0,1.5,0c0,0,0,0,0,0c0,1,0,2.1,0,3.1c0.6,0.1,1,0.1,1.4,0.2c0,0.5,0,1,0,1.5l0,0
		c-1,0-1.9,0-2.9,0C53.5,28.8,53.5,27.2,53.5,25.6L53.5,25.6z"/>
	<path class="st0" d="M20.1,27.2c0-0.5,0-1,0-1.6c1,0,1.9,0,2.9,0c0,0,0,0,0,0c0,1.6,0,3.2,0,4.8l0,0c-0.5,0-1,0-1.5,0
		c0-1,0-2.1,0-3.2C21,27.2,20.5,27.2,20.1,27.2L20.1,27.2z"/>
	<path class="st0" d="M28.8,24c0-1.5,0-3.1,0-4.7c0.6,0,1.1,0,1.7,0l0,0c0,1.6,0,3.2,0,4.8l0,0C29.9,24,29.3,24,28.8,24L28.8,24z"/>
	<path class="st0" d="M25.9,25.6c0-0.5,0-0.9,0-1.6c1,0,1.9,0,2.9,0c0,0,0,0,0,0c0,1.1,0,2.1,0,3.2c-0.5,0-0.9-0.1-1.4-0.1
		c-0.1-0.6-0.1-1-0.2-1.5C26.7,25.6,26.3,25.6,25.9,25.6L25.9,25.6z"/>
	<path class="st0" d="M5.7,22.4c0-1.5,0-3.1,0-4.7c0.5,0,0.9,0,1.4,0c0,1.5,0,3.1,0,4.7l0,0C6.7,22.4,6.2,22.4,5.7,22.4L5.7,22.4z"
		/>
	<path class="st0" d="M59.3,25.6c0-1.5,0-3.1,0-4.7c0.5,0,0.9,0,1.4-0.1c0,1.6,0,3.2,0,4.8l0,0C60.2,25.6,59.8,25.6,59.3,25.6
		L59.3,25.6z"/>
	<path class="st0" d="M75.1,25.6c0.5,0,1,0,1.5,0l0,0c0,1.6,0,3.2,0,4.8l0,0c-0.5,0-1,0-1.5,0C75.1,28.8,75.1,27.2,75.1,25.6
		L75.1,25.6z"/>
	<path class="st0" d="M76.6,20.9c0.9,0,1.8,0,2.9,0c0,1.1,0,2.1,0,3.2l0,0c-0.5,0-1,0-1.5,0l0,0c0-0.5,0-1,0-1.5
		c-0.5-0.1-0.9-0.1-1.4-0.2C76.6,21.8,76.6,21.3,76.6,20.9L76.6,20.9z"/>
	<path class="st0" d="M49.2,24c-0.4,0-0.9,0-1.4,0c0-1.5,0-3,0-4.6c0.4,0,0.8,0,1.3,0C49.2,20.9,49.2,22.5,49.2,24L49.2,24z"/>
	<path class="st0" d="M50.6,25.6c0.5,0,1,0,1.5,0l0,0c0,1.6,0,3.2,0,4.8c-0.5,0-1,0-1.5,0l0,0C50.6,28.8,50.6,27.2,50.6,25.6
		L50.6,25.6z"/>
	<path class="st0" d="M92.6,19.2c0,0.5,0.1,1.1,0.1,1.6c0,0,0,0,0,0c-1,0-2,0-3.1,0c0-0.5,0-0.9,0-1.5
		C90.6,19.2,91.6,19.2,92.6,19.2C92.6,19.2,92.6,19.2,92.6,19.2z"/>
	<path class="st0" d="M89.5,25.6c1.1,0,2.1,0,3.2,0c0,0,0,0,0,0c0,0.5,0,1.1,0,1.6c-1.1,0-2.1,0-3.2,0l0,0
		C89.6,26.7,89.6,26.1,89.5,25.6L89.5,25.6z"/>
	<path class="st0" d="M82.3,20.8c0,1.1,0,2.1,0,3.2l0,0c-0.5,0-1,0-1.5,0l0,0c0-1,0-2,0-3.2C81.4,20.9,81.9,20.9,82.3,20.8
		L82.3,20.8z"/>
	<path class="st0" d="M67.9,24c0-1.1,0-2.1,0-3.2l0,0c0.4,0,0.9,0,1.4,0c0,1.1,0,2.1,0,3.2l0,0C68.9,24,68.4,24,67.9,24
		C67.9,24,67.9,24,67.9,24z"/>
	<path class="st0" d="M85.2,22.4c0-0.5,0-1,0-1.5c0.9,0,1.8,0,2.8,0c0,0.5,0,1,0,1.5c0,0,0,0,0,0C87.1,22.4,86.2,22.4,85.2,22.4
		L85.2,22.4z"/>
	<path class="st0" d="M46.3,9.8c-0.4,0-0.9,0-1.4,0c0-1,0-2,0-3.1c0.4,0,0.8,0,1.3,0C46.3,7.7,46.3,8.8,46.3,9.8L46.3,9.8z"/>
	<path class="st0" d="M36.2,25.6c0-1.1,0-2.1,0-3.2l0,0c0.5,0,1,0,1.5,0c0,0,0,0,0,0c0,1.1,0,2.1,0,3.2
		C37.2,25.6,36.7,25.6,36.2,25.6L36.2,25.6z"/>
	<path class="st0" d="M88.1,22.4c0.4,0,0.9,0,1.4,0c0,1.1,0,2.1,0,3.2l0,0c-0.5,0-1,0-1.5,0C88.1,24.5,88.1,23.5,88.1,22.4
		L88.1,22.4z"/>
	<path class="st0" d="M41.9,19.3c0.5,0,0.9,0,1.4,0c0,1,0,2,0,3c-0.4,0-0.8,0-1.4,0C42,21.4,42,20.3,41.9,19.3
		C42,19.3,41.9,19.3,41.9,19.3z"/>
	<path class="st0" d="M37.7,22.5c0-1,0-2,0-3.1c0.5,0,0.9,0,1.4,0c0,1,0,2.1,0,3.1l0,0C38.6,22.4,38.1,22.4,37.7,22.5L37.7,22.5z"/>
	<path class="st0" d="M73.7,22.5c0.4,0,0.9,0,1.4,0c0,1.1,0,2.1,0,3.2c0,0,0,0,0,0c-0.5,0-1,0-1.5,0C73.7,24.5,73.7,23.5,73.7,22.5
		L73.7,22.5z"/>
	<path class="st0" d="M24.4,20.9c0.9,0,1.9,0,2.9,0c0,0.5,0,0.9,0,1.4c-0.9,0-1.8,0-2.8,0C24.5,21.8,24.4,21.4,24.4,20.9
		C24.4,20.9,24.4,20.9,24.4,20.9z"/>
	<path class="st0" d="M14.3,24c0.9,0,1.8,0,2.9,0c0,0.6,0,1.1,0,1.6l0,0c-1,0-1.9,0-2.9,0C14.4,25.1,14.4,24.5,14.3,24
		C14.4,24,14.3,24,14.3,24z"/>
	<path class="st0" d="M31.9,24c0-1,0-2,0-3.1c0.5,0,0.9,0,1.4,0c0,1,0,2.1,0,3.1l0,0C32.9,24,32.4,24,31.9,24L31.9,24z"/>
	<path class="st0" d="M99.9,20.8c-0.4,0-0.9,0-1.4,0c0-1,0-2,0-3.1c0.5,0,0.9,0,1.4,0c0,0,0,0,0,0C99.9,18.7,99.9,19.8,99.9,20.8
		L99.9,20.8z"/>
	<path class="st0" d="M40.5,24c0.9,0,1.9,0,2.9,0c0,0.6,0,1.1,0,1.6c0,0,0,0,0,0c-1,0-1.9,0-2.9,0C40.5,25.1,40.5,24.5,40.5,24
		L40.5,24z"/>
	<path class="st0" d="M30.5,19.3c0-0.5,0-1,0-1.5c0.9,0,1.8,0,2.8,0c0,0.4,0,0.9,0,1.5C32.3,19.3,31.4,19.3,30.5,19.3
		C30.4,19.3,30.5,19.3,30.5,19.3z"/>
	<path class="st0" d="M82.3,24c0.5,0,1,0,1.5,0l0,0c0,1.1,0,2.1,0,3.2c-0.5,0-1,0-1.5,0C82.3,26.1,82.3,25.1,82.3,24L82.3,24z"/>
	<path class="st0" d="M52.1,25.6c0-1.1,0-2.1,0-3.2l0,0c0.4,0,0.9,0,1.4,0c0,1.1,0,2.1,0,3.2c0,0,0,0,0,0
		C53,25.6,52.5,25.6,52.1,25.6L52.1,25.6z"/>
	<path class="st0" d="M102.8,17.7c0-0.5,0-1,0-1.5c0.9,0,1.8,0,2.8,0c0,0.5,0,1,0,1.5c0,0,0,0,0,0C104.7,17.7,103.7,17.7,102.8,17.7
		L102.8,17.7z"/>
	<path class="st0" d="M70.8,16.1c-0.4,0-0.9,0-1.4,0c0-1,0-2,0-3.1c0.4,0,0.8,0,1.3,0C70.8,14.1,70.8,15.1,70.8,16.1L70.8,16.1z"/>
	<path class="st0" d="M27.3,16.1c-0.4,0-0.9,0-1.4,0c0-1,0-2,0-3.1c0.4,0,0.8,0,1.3,0C27.3,14.1,27.3,15.1,27.3,16.1L27.3,16.1z"/>
	<path class="st0" d="M8.5,13c0,1.1,0,2,0,3c-0.4,0-0.8,0-1.3,0c0-1,0-1.9,0-3C7.6,13,8,13,8.5,13z"/>
	<path class="st0" d="M18.7,27.2c0.5,0,1,0,1.5,0c0,0,0,0,0,0c0,1.1,0,2.1,0,3.2c-0.5,0-1,0-1.5,0C18.7,29.3,18.7,28.2,18.7,27.2
		C18.7,27.2,18.7,27.2,18.7,27.2z"/>
	<path class="st0" d="M105.7,30.4c0-1.1,0-2.1,0-3.2c0,0,0,0,0,0c0.5,0,1,0,1.5,0l0,0c0,1.1,0,2.1,0,3.2l0,0
		C106.6,30.3,106.1,30.3,105.7,30.4L105.7,30.4z"/>
	<path class="st0" d="M108.5,27.2c0.5,0,1,0,1.5,0c0,0,0,0,0,0c0,1.1,0,2.1,0,3.2c-0.5,0-1,0-1.5,0l0,0
		C108.5,29.3,108.5,28.2,108.5,27.2L108.5,27.2z"/>
	<path class="st0" d="M65.1,17.7c-0.4,0-0.9,0-1.4,0c0-1.1,0-2.1,0-3.2l0,0c0.4,0,0.9,0,1.4,0C65,15.6,65,16.7,65.1,17.7L65.1,17.7z
		"/>
	<path class="st0" d="M60.7,25.6c1,0,1.9,0,2.9,0l0,0c0,0.5,0,1.1,0,1.6l0,0c-0.9,0-1.9,0-2.9,0C60.7,26.5,60.7,26.1,60.7,25.6
		C60.7,25.6,60.7,25.6,60.7,25.6z"/>
	<path class="st0" d="M36.2,17.7c0-1,0-2,0-3.1c0.4,0,0.9,0,1.3-0.1c0,1.1,0,2,0,3.1C37.1,17.7,36.7,17.7,36.2,17.7L36.2,17.7z"/>
	<path class="st0" d="M17.3,17.6c-0.5,0-0.9,0-1.4,0c0-1,0-2,0-3c0.4,0,0.8,0,1.4,0C17.3,15.6,17.3,16.6,17.3,17.6
		C17.3,17.7,17.3,17.6,17.3,17.6z"/>
	<path class="st0" d="M10.1,17.7c0-1,0-2,0-3.1c0.4,0,0.9,0,1.3-0.1c0,1.1,0,2,0,3.1C10.9,17.7,10.5,17.7,10.1,17.7L10.1,17.7z"/>
	<path class="st0" d="M40.6,17.6c-0.5,0-0.9,0-1.4,0c0-1,0-2,0-3c0.4,0,0.8,0,1.4,0C40.6,15.6,40.6,16.6,40.6,17.6
		C40.6,17.7,40.6,17.6,40.6,17.6z"/>
	<path class="st0" d="M28.8,11.4c0.5,0,1,0,1.6,0c0,0.5,0,0.9,0,1.5c-0.5,0-1,0-1.6,0C28.8,12.4,28.8,11.8,28.8,11.4L28.8,11.4z"/>
	<path class="st0" d="M91.2,9.8c-0.5,0-1,0-1.6,0c0-0.5,0-0.9,0-1.5c0.5,0,1,0,1.6,0C91.2,8.8,91.2,9.3,91.2,9.8L91.2,9.8z"/>
	<path class="st0" d="M47.8,3.4c0-0.5,0-0.9,0-1.4c0.4,0,0.8,0,1.3,0c0,0.4,0,0.9,0,1.4C48.7,3.4,48.3,3.4,47.8,3.4z"/>
	<path class="st0" d="M85.2,2c0,0.5,0,0.9,0,1.4c-0.4,0-0.8,0-1.3,0.1c0-0.5,0-1,0-1.5C84.3,2,84.7,2,85.2,2z"/>
	<path class="st0" d="M101.4,3.4c0-0.5,0-0.9,0-1.4c0.4,0,0.9,0,1.3,0c0,0.5,0,0.9,0,1.4C102.3,3.4,101.9,3.4,101.4,3.4z"/>
	<path class="st0" d="M25.9,3.4c-0.4,0-0.9,0-1.4,0c0-0.5,0-0.9,0-1.5c0.4,0,0.8,0,1.3,0C25.9,2.5,25.9,3,25.9,3.4L25.9,3.4z"/>
	<path class="st0" d="M36.3,3.4c0-0.5,0-0.9,0-1.4c0.4,0,0.8,0,1.3,0c0,0.4,0,0.9,0,1.4C37.2,3.4,36.8,3.4,36.3,3.4z"/>
	<path class="st0" d="M56.4,3.4c-0.4,0-0.9,0-1.4,0c0-0.5,0-0.9,0-1.5c0.4,0,0.8,0,1.3,0C56.4,2.5,56.4,3,56.4,3.4L56.4,3.4z"/>
	<path class="st0" d="M76.6,3.4c-0.4,0-0.9,0-1.4,0c0-0.5,0-0.9,0-1.5c0.4,0,0.8,0,1.3,0C76.6,2.5,76.6,3,76.6,3.4L76.6,3.4z"/>
	<path class="st0" d="M2.9,1.9c0.5,0,0.9,0,1.3,0c0,0.5,0,0.9,0,1.4c-0.4,0-0.8,0-1.3,0C2.9,2.9,2.9,2.5,2.9,1.9z"/>
	<path class="st0" d="M95.5,16.1c0.4,0,0.9,0,1.4,0c0,0.5,0,0.9,0,1.5c-0.4,0-0.8,0-1.3,0C95.6,17.1,95.6,16.6,95.5,16.1L95.5,16.1z
		"/>
	<path class="st0" d="M92.7,17.7c-0.4,0-0.9,0-1.4,0c0-0.5,0-0.9,0-1.5c0.4,0,0.8,0,1.3,0C92.6,16.7,92.6,17.2,92.7,17.7L92.7,17.7z
		"/>
	<path class="st0" d="M88.2,17.7c0-0.5,0-1,0-1.6c0.4,0,0.8,0,1.3,0c0,0.4,0,0.9,0.1,1.4C89,17.6,88.6,17.7,88.2,17.7
		C88.1,17.7,88.2,17.7,88.2,17.7z"/>
	<path class="st0" d="M85.2,16.1c0.4,0,0.9,0,1.4,0c0,0.6,0,1.1,0,1.6l0,0c-0.5,0-0.9,0-1.4,0c0,0,0,0,0,0
		C85.3,17.2,85.3,16.6,85.2,16.1L85.2,16.1z"/>
	<path class="st0" d="M80.9,17.7c0-0.5,0-0.9,0-1.5c0.4,0,0.9,0,1.3,0c0,0.4,0,0.9,0,1.5C81.8,17.7,81.3,17.7,80.9,17.7L80.9,17.7z"
		/>
	<path class="st0" d="M78,17.7c0-0.5,0-1.1,0-1.6l0,0c0.4,0,0.9,0,1.4,0c0,0.5,0.1,1,0.1,1.5c0,0,0,0,0,0C79,17.6,78.5,17.6,78,17.7
		L78,17.7z"/>
	<path class="st0" d="M73.8,17.7c0-0.5,0-1,0-1.6c0.4,0,0.8,0,1.3,0c0,0.4,0,0.9,0.1,1.4C74.6,17.6,74.2,17.7,73.8,17.7
		C73.7,17.7,73.8,17.7,73.8,17.7z"/>
	<path class="st0" d="M70.8,16.1c0.4,0,0.9,0,1.4,0c0,0.5,0.1,1,0.1,1.5c0,0,0,0,0,0c-0.5,0-0.9,0-1.5,0.1
		C70.8,17.1,70.8,16.6,70.8,16.1C70.8,16.1,70.8,16.1,70.8,16.1z"/>
	<path class="st0" d="M60.7,17.7c0-0.5,0-1,0-1.6c0,0,0,0,0,0c0.5,0,0.9,0,1.4-0.1c0,0.5,0,1,0,1.6C61.6,17.7,61.2,17.7,60.7,17.7
		L60.7,17.7z"/>
	<path class="st0" d="M56.4,17.6c0-0.5,0-0.9,0-1.4c0.5,0,0.9,0,1.3,0c0,0.5,0,0.9,0,1.4C57.4,17.6,57,17.6,56.4,17.6z"/>
	<path class="st0" d="M53.5,16.2c0.5,0,0.9,0,1.4,0c0,0.5,0,0.9,0,1.4c-0.4,0-0.8,0-1.3,0.1C53.6,17.1,53.5,16.6,53.5,16.2
		C53.5,16.1,53.5,16.2,53.5,16.2z"/>
	<path class="st0" d="M49.2,16.1c0.4,0,0.9,0,1.4,0c0,0.6,0,1.1,0,1.6l0,0c-0.4,0-0.9,0-1.4,0C49.2,17.1,49.2,16.6,49.2,16.1
		L49.2,16.1z"/>
	<path class="st0" d="M44.9,17.6c0-0.5,0-0.9,0-1.4c0.4,0,0.8,0,1.3,0c0,0.4,0,0.9,0,1.4C45.8,17.6,45.4,17.6,44.9,17.6z"/>
	<path class="st0" d="M42,17.7c0-0.5,0-0.9,0-1.5c0.4,0,0.9,0,1.3,0c0,0.4,0,0.9,0,1.5C42.9,17.7,42.4,17.7,42,17.7L42,17.7z"/>
	<path class="st0" d="M27.3,16.1c0.4,0,0.9,0,1.4,0c0,0.5,0,1,0,1.5c-0.5,0-0.9,0-1.4,0l0,0C27.4,17.2,27.3,16.6,27.3,16.1
		C27.3,16.1,27.3,16.1,27.3,16.1z"/>
	<path class="st0" d="M23.1,17.7c0-0.5,0-1,0-1.6c0.4,0,0.8,0,1.3,0c0,0.4,0,0.9,0.1,1.4C24,17.6,23.5,17.7,23.1,17.7
		C23,17.7,23.1,17.7,23.1,17.7z"/>
	<path class="st0" d="M20.1,16.1c0.4,0,0.9,0,1.4,0c0,0.5,0.1,1,0.1,1.5c0,0,0,0,0,0c-0.5,0-0.9,0-1.5,0.1
		C20.1,17.1,20.1,16.6,20.1,16.1L20.1,16.1z"/>
	<path class="st0" d="M2.8,17.7c-0.5,0-0.9,0-1.5,0c0-0.6,0-1.1,0-1.6c0.5,0,0.9,0,1.5,0C2.8,16.7,2.8,17.2,2.8,17.7z"/>
	<path class="st0" d="M27.4,9.7c-0.5,0-0.9,0-1.4,0c0-0.5,0-0.9,0-1.4c0.4,0,0.8,0,1.3-0.1C27.3,8.7,27.3,9.2,27.4,9.7
		C27.4,9.7,27.4,9.7,27.4,9.7z"/>
	<path class="st0" d="M118.6,14.6c0,0.5,0,0.9,0,1.4c-0.4,0-0.9,0-1.3,0c0-0.5,0-0.9,0-1.4C117.7,14.6,118.1,14.6,118.6,14.6z"/>
	<path class="st0" d="M98.4,14.5c0.4,0,0.9,0,1.4,0c0,0.6,0,1.1,0,1.6l0,0c-0.4,0-0.9,0-1.4,0C98.5,15.5,98.5,15,98.4,14.5
		L98.4,14.5z"/>
	<path class="st0" d="M95.6,16.1c-0.4,0-0.9,0-1.4,0c0-0.5,0-0.9,0-1.5c0.4,0,0.8,0,1.3,0C95.5,15.1,95.5,15.6,95.6,16.1
		C95.5,16.1,95.6,16.1,95.6,16.1z"/>
	<path class="st0" d="M85.2,16.1c-0.4,0-0.9,0-1.4,0c0-0.5,0-0.9,0-1.5c0.4,0,0.8,0,1.3,0C85.2,15.1,85.2,15.6,85.2,16.1
		C85.2,16.1,85.2,16.1,85.2,16.1z"/>
	<path class="st0" d="M78,16.1c-0.5,0-0.9,0-1.4,0c0-0.6,0-1.1,0-1.6l0,0c0.4,0,0.9,0,1.4,0C78,15.1,78,15.6,78,16.1
		C78,16.1,78,16.1,78,16.1z"/>
	<path class="st0" d="M66.6,14.6c0.5,0,0.9,0,1.3,0c0,0.5,0,0.9,0,1.4c-0.4,0-0.8,0-1.3,0C66.6,15.6,66.6,15.1,66.6,14.6z"/>
	<path class="st0" d="M59.2,14.6c0.5,0,0.9,0,1.4,0c0,0.6,0,1.1,0,1.6c0,0,0,0,0,0c-0.4,0-0.8,0-1.4-0.1
		C59.3,15.5,59.3,15.1,59.2,14.6C59.3,14.6,59.2,14.6,59.2,14.6z"/>
	<path class="st0" d="M52,14.6c0.5,0,0.9,0,1.4,0c0,0.6,0,1.1,0,1.6c0,0,0,0,0,0c-0.4,0-0.8,0-1.4-0.1C52.1,15.5,52.1,15.1,52,14.6
		C52.1,14.6,52,14.6,52,14.6z"/>
	<path class="st0" d="M49.2,16.1c-0.5,0-0.9,0-1.4,0c0-0.6,0-1.1,0-1.6l0,0c0.4,0,0.9,0,1.4,0C49.2,15.1,49.2,15.6,49.2,16.1
		C49.2,16.1,49.2,16.1,49.2,16.1z"/>
	<path class="st0" d="M34.8,14.6c0,0.5,0,0.9,0,1.4c-0.4,0-0.8,0-1.3,0.1c0-0.5,0-1,0-1.5C33.9,14.6,34.3,14.6,34.8,14.6z"/>
	<path class="st0" d="M31.9,14.6c0,0.5,0,0.9,0,1.4c-0.4,0-0.8,0-1.3,0.1c0-0.5,0-1,0-1.5C31,14.6,31.4,14.6,31.9,14.6z"/>
	<path class="st0" d="M20.1,16.1c-0.4,0-0.9,0-1.4,0c0-0.5,0-0.9,0-1.5c0.4,0,0.8,0,1.3,0C20.1,15.1,20.1,15.6,20.1,16.1
		C20.1,16.1,20.1,16.1,20.1,16.1z"/>
	<path class="st0" d="M14.3,14.6c0,0.5,0,0.9,0,1.4c-0.4,0-0.8,0-1.3,0.1c0-0.5,0-1,0-1.5C13.4,14.6,13.9,14.6,14.3,14.6z"/>
	<path class="st0" d="M7.2,9.8c-0.4,0-0.9,0-1.4,0c0-0.5,0-0.9,0-1.5c0.4,0,0.8,0,1.3,0C7.1,8.8,7.1,9.3,7.2,9.8L7.2,9.8z"/>
	<path class="st0" d="M12.9,19.2c0,0.5,0,1,0,1.6c-0.4,0-0.8,0-1.3,0c0-0.4,0-0.9-0.1-1.4C12,19.3,12.4,19.3,12.9,19.2
		C12.9,19.2,12.9,19.2,12.9,19.2z"/>
	<path class="st0" d="M2.8,20.9c-0.4,0-0.9,0-1.4,0c0-0.5,0-1,0-1.5c0.5,0,0.9-0.1,1.4-0.1C2.8,19.8,2.8,20.3,2.8,20.9z"/>
	<path class="st0" d="M118.6,19.3c-0.5,0-1,0-1.5,0c0-0.5,0-1,0-1.5c0.5,0,0.9,0,1.4,0C118.6,18.3,118.6,18.8,118.6,19.3z"/>
	<path class="st0" d="M114.3,17.7c0.5,0,0.9,0,1.4,0c0,0.6,0,1.1,0,1.6c0,0,0,0,0,0c-0.5,0-0.9,0-1.4,0
		C114.3,18.7,114.3,18.2,114.3,17.7L114.3,17.7z"/>
	<path class="st0" d="M21.5,8.3c0,0.5,0,0.9,0,1.4c-0.4,0-0.8,0-1.3,0.1c0-0.5,0-1,0-1.5C20.7,8.3,21.1,8.3,21.5,8.3z"/>
	<path class="st0" d="M111.4,17.7c0.5,0,1,0,1.5,0l0,0c0,0.5,0,1,0,1.6c-0.5,0-1,0-1.4,0l0,0C111.4,18.7,111.4,18.2,111.4,17.7
		L111.4,17.7z"/>
	<path class="st0" d="M107.1,17.7c0,0.5,0,1.1,0,1.6c0,0,0,0,0,0c-0.5,0-0.9,0-1.4,0c0-0.6,0-1.1,0-1.6c0,0,0,0,0,0
		C106.1,17.7,106.6,17.7,107.1,17.7L107.1,17.7z"/>
	<path class="st0" d="M23.1,9.7c0-0.5,0-0.9,0-1.4c0.4,0,0.8,0,1.3,0c0,0.4,0,0.9,0,1.4C24,9.7,23.5,9.7,23.1,9.7z"/>
	<path class="st0" d="M101.3,17.7c0.5,0,1,0,1.5,0c0,0,0,0,0,0c0,0.5,0,1,0,1.5c-0.5,0-1,0-1.4,0C101.3,18.6,101.3,18.1,101.3,17.7
		L101.3,17.7z"/>
	<path class="st0" d="M92.6,17.7c0.4,0,0.9,0,1.4,0c0,0.5,0,0.9,0.1,1.5c-0.5,0-1,0-1.5,0c0,0,0,0,0,0
		C92.7,18.7,92.7,18.2,92.6,17.7C92.7,17.7,92.6,17.7,92.6,17.7z"/>
	<path class="st0" d="M86.6,17.7c0.5,0,1,0,1.5,0c0,0,0,0,0,0c0,0.5,0,0.9-0.1,1.5c-0.4,0-0.9,0-1.4,0
		C86.7,18.7,86.7,18.2,86.6,17.7C86.7,17.7,86.6,17.7,86.6,17.7z"/>
	<path class="st0" d="M83.8,19.3c0-0.5,0-1,0-1.6c0.5,0,1,0,1.4,0c0,0,0,0,0,0c0,0.5,0,0.9-0.1,1.5C84.7,19.2,84.3,19.3,83.8,19.3
		C83.8,19.3,83.8,19.3,83.8,19.3z"/>
	<path class="st0" d="M80.9,17.7c0,0.5,0,0.9,0,1.5c-0.4,0-0.8,0-1.4,0.1c0-0.6,0-1.1,0-1.7c0,0,0,0,0,0
		C80,17.7,80.4,17.7,80.9,17.7C80.9,17.7,80.9,17.7,80.9,17.7z"/>
	<path class="st0" d="M78,17.7c0,0.5,0,0.9,0,1.5c-0.5,0-0.9,0.1-1.4,0.1c0,0,0,0,0,0c0-0.5,0-1-0.1-1.6
		C77.1,17.7,77.6,17.7,78,17.7C78,17.7,78,17.7,78,17.7z"/>
	<path class="st0" d="M72.3,19.3c0-0.6,0-1.1,0-1.7c0,0,0,0,0,0c0.5,0,1,0.1,1.5,0.1c0,0,0,0,0,0c0,0.5,0,0.9-0.1,1.5
		C73.2,19.2,72.7,19.3,72.3,19.3C72.3,19.3,72.3,19.3,72.3,19.3z"/>
	<path class="st0" d="M68,19.3c0-0.5,0-1,0-1.6c0.4,0,0.8,0,1.3,0c0,0.4,0,0.9,0.1,1.4C68.9,19.2,68.4,19.3,68,19.3
		C68,19.3,68,19.3,68,19.3z"/>
	<path class="st0" d="M65,17.7c0.4,0,0.9,0,1.4,0c0,0.5,0.1,1,0.1,1.5c0,0,0,0,0,0c-0.5,0-0.9,0-1.5,0.1
		C65.1,18.7,65.1,18.2,65,17.7C65.1,17.7,65,17.7,65,17.7z"/>
	<path class="st0" d="M60.7,17.7c0,0.5,0,0.9,0,1.5c-0.4,0-0.9,0-1.3,0c0-0.4,0-0.9,0-1.5C59.8,17.7,60.3,17.7,60.7,17.7
		C60.7,17.7,60.7,17.7,60.7,17.7z"/>
	<path class="st0" d="M50.6,17.7c0.4,0,0.9,0,1.4,0c0,0.5,0,0.9,0,1.5c-0.4,0-0.8,0-1.3,0C50.6,18.7,50.6,18.2,50.6,17.7
		C50.6,17.7,50.6,17.7,50.6,17.7z"/>
	<path class="st0" d="M42,17.7c0,0.6,0,1.1,0,1.7c0,0,0,0,0,0c-0.4,0-0.8,0-1.4-0.1c0-0.5,0-1.1,0-1.6c0,0,0,0,0,0
		C41,17.7,41.5,17.7,42,17.7C42,17.7,42,17.7,42,17.7z"/>
	<path class="st0" d="M36.2,17.7c0,0.5,0,0.9,0,1.5c-0.4,0-0.9,0-1.3,0c0-0.4,0-0.9,0-1.5C35.3,17.7,35.8,17.7,36.2,17.7
		C36.2,17.7,36.2,17.7,36.2,17.7z"/>
	<path class="st0" d="M27.3,17.7c0,0.5,0,0.9,0,1.5c-0.4,0-0.9,0-1.3,0c0-0.4,0-0.9,0-1.5C26.4,17.7,26.9,17.7,27.3,17.7
		C27.4,17.7,27.3,17.7,27.3,17.7z"/>
	<path class="st0" d="M23,19.2c-0.4,0-0.9,0-1.4,0c0-0.6,0-1.1,0-1.6c0,0,0,0,0,0c0.5,0,1,0.1,1.5,0.1c0,0,0,0,0,0
		C23,18.2,23,18.8,23,19.2L23,19.2z"/>
	<path class="st0" d="M18.7,19.3c-0.4,0-0.9,0-1.4,0c0-0.6,0-1.1,0-1.6c0,0,0,0,0,0c0.4,0,0.9,0,1.4,0.1
		C18.7,18.3,18.7,18.8,18.7,19.3C18.7,19.3,18.7,19.3,18.7,19.3z"/>
	<path class="st0" d="M14.4,19.2c-0.5,0-1,0-1.6,0c0,0,0,0,0,0c0-0.5,0-0.9,0.1-1.5c0.4,0,0.8,0,1.3,0
		C14.3,18.2,14.4,18.7,14.4,19.2C14.4,19.2,14.4,19.2,14.4,19.2z"/>
	<path class="st0" d="M10,17.7c0,0.5,0,0.9,0,1.5c-0.4,0-0.9,0-1.3,0c0-0.4,0-0.9,0-1.5C9.1,17.7,9.6,17.7,10,17.7
		C10.1,17.7,10,17.7,10,17.7z"/>
	<path class="st0" d="M2.8,19.3c0-0.5,0-1.1,0-1.6c0.4,0,0.9,0,1.4,0c0,0.5,0,1,0,1.5C3.7,19.2,3.3,19.3,2.8,19.3z"/>
	<path class="st0" d="M112.9,17.7c0-0.5,0-1,0-1.5c0.5,0,0.9,0,1.4,0c0,0.5,0,1,0,1.5c0,0,0,0,0,0C113.8,17.7,113.3,17.7,112.9,17.7
		L112.9,17.7z"/>
	<path class="st0" d="M111.4,17.7c-0.4,0-0.9,0-1.4,0c0-0.5,0-0.9,0-1.5c0.4,0,0.8,0,1.3,0C111.4,16.7,111.4,17.2,111.4,17.7
		C111.4,17.7,111.4,17.7,111.4,17.7z"/>
	<path class="st0" d="M107.1,17.7c0-0.5,0-0.9,0-1.5c0.4,0,0.9,0,1.4,0c0,0.4,0,0.9,0,1.5C108,17.7,107.5,17.7,107.1,17.7
		C107.1,17.7,107.1,17.7,107.1,17.7z"/>
	<path class="st0" d="M99.9,16.1c0.5,0,0.9,0,1.4,0c0,0.6,0,1.1,0,1.6l0,0c-0.5,0-1,0-1.5,0c0,0,0,0,0,0
		C99.9,17.2,99.9,16.6,99.9,16.1C99.9,16.1,99.9,16.1,99.9,16.1z"/>
	<path class="st0" d="M14.3,11.5c0,0.5,0,0.9,0,1.4c-0.4,0-0.8,0-1.3,0.1c0-0.5,0-1,0-1.5C13.4,11.5,13.9,11.5,14.3,11.5z"/>
	<path class="st0" d="M11.4,11.4c0,0.5,0,0.9,0,1.4c-0.4,0-0.8,0-1.3,0c0-0.4,0-0.9,0-1.4C10.5,11.4,11,11.4,11.4,11.4z"/>
	<path class="st0" d="M1.4,12.8c0-0.5,0-0.9,0-1.4c0.4,0,0.8,0,1.3-0.1c0,0.5,0,1,0,1.5C2.3,12.8,1.9,12.8,1.4,12.8z"/>
	<path class="st0" d="M114.3,9.8c0.4,0,0.9,0,1.4,0c0,0.5,0,0.9,0,1.5c-0.4,0-0.8,0-1.3,0C114.3,10.8,114.3,10.3,114.3,9.8
		L114.3,9.8z"/>
	<path class="st0" d="M105.7,11.4c0-0.5,0-0.9,0-1.5c0.4,0,0.9,0,1.3,0c0,0.4,0,0.9,0,1.5C106.5,11.3,106.1,11.3,105.7,11.4
		L105.7,11.4z"/>
	<path class="st0" d="M99.9,9.8c0.4,0,0.9,0,1.4,0c0,0.5,0,0.9,0,1.5c-0.4,0-0.8,0-1.3,0C99.9,10.8,99.9,10.3,99.9,9.8L99.9,9.8z"/>
	<path class="st0" d="M91.2,9.8c0.4,0,0.9,0,1.4,0c0,0.5,0,0.9,0,1.5c-0.4,0-0.8,0-1.3,0C91.2,10.8,91.2,10.3,91.2,9.8
		C91.2,9.8,91.2,9.8,91.2,9.8z"/>
	<path class="st0" d="M83.7,9.8c0,0.5,0,0.9,0,1.4c-0.4,0-0.9,0-1.3,0c0-0.5,0-0.9,0-1.4C82.8,9.8,83.2,9.8,83.7,9.8z"/>
	<path class="st0" d="M79.5,11.4c0-0.5,0-0.9,0-1.5c0.4,0,0.9,0,1.3,0c0,0.4,0,0.9,0,1.5C80.4,11.3,79.9,11.3,79.5,11.4L79.5,11.4z"
		/>
	<path class="st0" d="M75.1,9.8c0.4,0,0.9,0,1.4,0c0,0.5,0,0.9,0,1.5c-0.4,0-0.8,0-1.3,0C75.2,10.8,75.2,10.3,75.1,9.8L75.1,9.8z"/>
	<path class="st0" d="M67.9,9.8c0.4,0,0.9,0,1.4,0c0,0.5,0,0.9,0,1.5c-0.4,0-0.8,0-1.3,0C67.9,10.8,67.9,10.3,67.9,9.8L67.9,9.8z"/>
	<path class="st0" d="M63.6,9.8c0.4,0,0.9,0,1.4,0c0,0.5,0,0.9,0,1.5c-0.4,0-0.8,0-1.3,0C63.6,10.8,63.6,10.3,63.6,9.8L63.6,9.8z"/>
	<path class="st0" d="M59.3,9.8c0.4,0,0.9,0,1.4,0c0,0.5,0,0.9,0,1.5c-0.4,0-0.8,0-1.3,0C59.3,10.8,59.3,10.3,59.3,9.8L59.3,9.8z"/>
	<path class="st0" d="M53.5,11.3c-0.4,0-0.9,0-1.4,0c0-0.5,0-0.9,0-1.5c0.4,0,0.8,0,1.3,0C53.5,10.4,53.5,10.9,53.5,11.3L53.5,11.3z
		"/>
	<path class="st0" d="M46.3,9.8c0.4,0,0.9,0,1.4,0c0,0.5,0,0.9,0,1.5c-0.4,0-0.8,0-1.3,0C46.3,10.8,46.3,10.3,46.3,9.8
		C46.3,9.8,46.3,9.8,46.3,9.8z"/>
	<path class="st0" d="M40.5,9.8c0.4,0,0.9,0,1.4,0c0,0.5,0,0.9,0,1.5c-0.4,0-0.8,0-1.3,0C40.6,10.8,40.6,10.3,40.5,9.8L40.5,9.8z"/>
	<path class="st0" d="M28.8,11.3c-0.4,0-0.9,0-1.4,0c0-0.6,0-1.1,0-1.6c0,0,0,0,0,0c0.4,0,0.9,0,1.4,0.1
		C28.8,10.4,28.8,10.9,28.8,11.3C28.8,11.4,28.8,11.3,28.8,11.3z"/>
	<path class="st0" d="M17.3,11.4c0-0.5,0-0.9,0-1.5c0.4,0,0.9,0,1.3,0c0,0.4,0,0.9,0,1.5C18.1,11.3,17.7,11.3,17.3,11.4L17.3,11.4z"
		/>
	<path class="st0" d="M7.1,9.8c0.4,0,0.9,0,1.4,0c0,0.5,0,0.9,0,1.5c-0.4,0-0.8,0-1.3,0C7.2,10.8,7.2,10.3,7.1,9.8
		C7.2,9.8,7.1,9.8,7.1,9.8z"/>
	<path class="st0" d="M114.3,9.8c-0.4,0-0.9,0-1.4,0c0-0.5,0-0.9,0-1.5c0.4,0,0.8,0,1.3,0C114.3,8.8,114.3,9.3,114.3,9.8
		C114.3,9.8,114.3,9.8,114.3,9.8z"/>
	<path class="st0" d="M108.6,8.2c0.5,0,0.8,0,1.3,0c0,0.5,0,1,0,1.5c-0.4,0-0.8,0-1.3,0C108.6,9.3,108.6,8.8,108.6,8.2z"/>
	<path class="st0" d="M104.1,9.7c-0.4,0-0.8,0-1.3,0c0-0.5,0-0.9,0-1.4c0.4,0,0.8,0,1.3,0C104.1,8.7,104.1,9.1,104.1,9.7z"/>
	<path class="st0" d="M99.9,9.8c-0.4,0-0.9,0-1.4,0c0-0.5,0-0.9,0-1.5c0.4,0,0.8,0,1.3,0C99.9,8.8,99.9,9.3,99.9,9.8
		C99.9,9.8,99.9,9.8,99.9,9.8z"/>
	<path class="st0" d="M94.2,8.2c0.5,0,0.8,0,1.3,0c0,0.5,0,1,0,1.5c-0.4,0-0.8,0-1.3,0C94.2,9.3,94.2,8.8,94.2,8.2z"/>
	<path class="st0" d="M88.1,8.3c0,0.5,0,0.9,0,1.4c-0.5,0-0.9,0-1.3,0c0-0.5,0-0.9,0-1.4C87.1,8.3,87.5,8.3,88.1,8.3z"/>
	<path class="st0" d="M75.2,9.8c-0.4,0-0.9,0-1.4,0c0-0.5,0-0.9,0-1.5c0.4,0,0.8,0,1.3,0C75.1,8.8,75.1,9.3,75.2,9.8
		C75.1,9.8,75.2,9.8,75.2,9.8z"/>
	<path class="st0" d="M72.2,8.3c0,0.5,0,0.9,0,1.4c-0.4,0-0.8,0-1.3,0c0-0.4,0-0.9,0-1.4C71.3,8.3,71.7,8.3,72.2,8.3z"/>
	<path class="st0" d="M67.9,9.8c-0.4,0-0.9,0-1.4,0c0-0.5,0-0.9,0-1.5c0.4,0,0.8,0,1.3,0C67.9,8.8,67.9,9.3,67.9,9.8
		C67.9,9.8,67.9,9.8,67.9,9.8z"/>
	<path class="st0" d="M63.6,9.8c-0.4,0-0.9,0-1.4,0c0-0.5,0-0.9,0-1.5c0.4,0,0.8,0,1.3,0C63.6,8.8,63.6,9.3,63.6,9.8
		C63.6,9.8,63.6,9.8,63.6,9.8z"/>
	<path class="st0" d="M59.3,9.8c-0.4,0-0.9,0-1.4,0c0-0.5,0-0.9,0-1.5c0.4,0,0.8,0,1.3,0C59.3,8.8,59.3,9.3,59.3,9.8
		C59.3,9.8,59.3,9.8,59.3,9.8z"/>
	<path class="st0" d="M40.6,9.8c-0.4,0-0.9,0-1.4,0c0-0.5,0-0.9,0-1.5c0.4,0,0.8,0,1.3,0C40.5,8.8,40.5,9.3,40.6,9.8
		C40.5,9.8,40.6,9.8,40.6,9.8z"/>
	<path class="st0" d="M34.8,8.2c0.4,0,0.9,0,1.4,0c0,0.5,0,0.9,0,1.5c-0.4,0-0.8,0-1.3,0C34.8,9.2,34.8,8.7,34.8,8.2L34.8,8.2z"/>
	<path class="st0" d="M115.7,14.5c-0.4,0-0.8,0-1.3,0c0-0.4,0-0.9,0-1.4c0.4,0,0.8,0,1.3,0C115.7,13.5,115.7,13.9,115.7,14.5z"/>
	<path class="st0" d="M111.4,13c0.4,0,0.9,0,1.4,0c0,0.5,0,0.9,0,1.5c-0.4,0-0.8,0-1.3,0C111.4,13.9,111.4,13.4,111.4,13L111.4,13z"
		/>
	<path class="st0" d="M107.1,13c0.5,0,0.9,0,1.3,0c0,0.5,0,0.9,0,1.5c-0.4,0-0.8,0-1.3,0C107.1,14,107.1,13.6,107.1,13z"/>
	<path class="st0" d="M102.7,13c0,0.5,0,0.9,0,1.4c-0.4,0-0.8,0-1.3,0.1c0-0.5,0-1,0-1.5C101.8,13,102.3,13,102.7,13z"/>
	<path class="st0" d="M98.5,14.5c-0.4,0-0.9,0-1.4,0c0-0.5,0-0.9,0-1.5c0.4,0,0.8,0,1.3,0C98.4,13.5,98.4,14,98.5,14.5
		C98.4,14.5,98.5,14.5,98.5,14.5z"/>
	<path class="st0" d="M91.3,13c0.4,0,0.8,0,1.3,0c0,0.5,0,0.9,0,1.4c-0.4,0-0.8,0-1.3,0C91.3,14,91.3,13.6,91.3,13z"/>
	<path class="st0" d="M89.5,14.5c-0.5,0-0.8,0-1.3,0c0-0.5,0-1,0-1.5c0.4,0,0.8,0,1.3,0C89.5,13.4,89.5,13.9,89.5,14.5z"/>
	<path class="st0" d="M82.3,14.5c-0.5,0-0.9,0-1.3,0c0-0.5,0-0.9,0-1.4c0.4,0,0.8,0,1.3,0C82.3,13.5,82.3,13.9,82.3,14.5z"/>
	<path class="st0" d="M76.6,14.5c-0.4,0-0.9,0-1.4,0c0-0.5,0-0.9,0-1.5c0.4,0,0.8,0,1.3,0C76.6,13.5,76.6,14,76.6,14.5
		C76.6,14.5,76.6,14.5,76.6,14.5z"/>
	<path class="st0" d="M72.3,14.5c0-0.5,0-0.9,0-1.4c0.4,0,0.8,0,1.3,0c0,0.4,0,0.9,0,1.4C73.2,14.5,72.8,14.5,72.3,14.5z"/>
	<path class="st0" d="M63.6,14.5c-0.4,0-0.9,0-1.4,0c0-0.5,0-0.9,0-1.5c0.4,0,0.8,0,1.3,0C63.6,13.5,63.6,14,63.6,14.5
		C63.6,14.5,63.6,14.5,63.6,14.5z"/>
	<path class="st0" d="M57.8,13c0.4,0,0.9,0,1.4,0c0,0.6,0,1.1,0,1.6c0,0,0,0,0,0c-0.4,0-0.9,0-1.4-0.1C57.9,13.9,57.9,13.4,57.8,13
		L57.8,13z"/>
	<path class="st0" d="M50.6,13c0.4,0,0.9,0,1.4,0c0,0.6,0,1.1,0,1.6c0,0,0,0,0,0c-0.4,0-0.9,0-1.4-0.1C50.7,13.9,50.7,13.4,50.6,13
		L50.6,13z"/>
	<path class="st0" d="M47.8,14.5c-0.4,0-0.9,0-1.4,0c0-0.5,0-0.9,0-1.5c0.4,0,0.8,0,1.3,0C47.7,13.5,47.7,14,47.8,14.5
		C47.7,14.5,47.8,14.5,47.8,14.5z"/>
	<path class="st0" d="M44.8,14.5c-0.4,0-0.8,0-1.3,0c0-0.4,0-0.9,0-1.4c0.4,0,0.8,0,1.3,0C44.8,13.5,44.8,13.9,44.8,14.5z"/>
	<path class="st0" d="M23,13c0.4,0,0.9,0,1.4,0c0,0.5,0,0.9,0,1.5c-0.4,0-0.8,0-1.3,0C23,13.9,23,13.4,23,13L23,13z"/>
	<path class="st0" d="M5.6,14.5c-0.5,0-0.8,0-1.3,0c0-0.5,0-1,0-1.5c0.4,0,0.8,0,1.3,0C5.6,13.4,5.6,13.9,5.6,14.5z"/>
	<path class="st0" d="M117.2,11.4c0.5,0,0.9,0,1.3,0c0,0.5,0,0.9,0,1.4c-0.4,0-0.8,0-1.3,0C117.2,12.4,117.2,12,117.2,11.4z"/>
	<path class="st0" d="M111.4,12.9c-0.4,0-0.9,0-1.4,0c0-0.5,0-0.9,0-1.5c0.4,0,0.8,0,1.3,0C111.4,12,111.4,12.5,111.4,12.9
		C111.4,13,111.4,12.9,111.4,12.9z"/>
	<path class="st0" d="M105.6,11.3c0,0.5,0,0.9,0,1.5c-0.4,0-0.9,0-1.4,0c0-0.4,0-0.9,0-1.5C104.7,11.4,105.2,11.4,105.6,11.3
		C105.7,11.4,105.6,11.3,105.6,11.3z"/>
	<path class="st0" d="M95.5,11.4c0,0.5,0,1,0,1.4c-0.4,0-0.8,0-1.3,0c0-0.4,0-0.9,0-1.4C94.6,11.4,95,11.4,95.5,11.4z"/>
	<path class="st0" d="M85.3,12.9c0-0.5,0-0.9,0-1.4c0.4,0,0.8,0,1.3,0c0,0.4,0,0.9,0,1.4C86.2,12.9,85.7,12.9,85.3,12.9z"/>
	<path class="st0" d="M79.4,11.3c0,0.5,0,0.9,0,1.5c-0.4,0-0.9,0-1.4,0c0-0.4,0-0.9,0-1.5C78.6,11.4,79,11.4,79.4,11.3
		C79.5,11.4,79.4,11.3,79.4,11.3z"/>
	<path class="st0" d="M57.9,12.9c-0.4,0-0.9,0-1.4,0c0-0.5,0-0.9,0-1.5c0.4,0,0.8,0,1.3,0C57.8,12,57.8,12.5,57.9,12.9
		C57.8,13,57.9,12.9,57.9,12.9z"/>
	<path class="st0" d="M53.5,11.4c0.4,0,0.9,0,1.4,0c0,0.5,0,0.9,0,1.5c-0.4,0-0.8,0-1.3,0C53.5,12.3,53.5,11.8,53.5,11.4
		C53.5,11.3,53.5,11.4,53.5,11.4z"/>
	<path class="st0" d="M50.7,12.9c-0.4,0-0.9,0-1.4,0c0-0.5,0-0.9,0-1.5c0.4,0,0.8,0,1.3,0C50.6,12,50.6,12.5,50.7,12.9
		C50.6,13,50.7,12.9,50.7,12.9z"/>
	<path class="st0" d="M37.7,12.9c0-0.5,0-1,0-1.4c0.4,0,0.8,0,1.3,0c0,0.4,0,0.9,0,1.4C38.6,12.9,38.2,12.9,37.7,12.9z"/>
	<path class="st0" d="M34.8,11.4c0.4,0,0.8,0,1.3,0c0,0.4,0,0.9,0,1.4c-0.4,0-0.8,0-1.3,0C34.8,12.4,34.8,11.9,34.8,11.4z"/>
	<path class="st0" d="M31.9,12.8c0-0.5,0-0.9,0-1.4c0.4,0,0.8,0,1.3-0.1c0,0.5,0,1,0,1.5C32.8,12.8,32.4,12.8,31.9,12.8z"/>
	<path class="st0" d="M23,12.9c-0.4,0-0.9,0-1.4,0c0-0.5,0-0.9,0-1.5c0.4,0,0.8,0,1.3,0C23,12,23,12.5,23,12.9
		C23,13,23,12.9,23,12.9z"/>
	<path class="st0" d="M17.2,11.3c0,0.5,0,0.9,0,1.5c-0.4,0-0.9,0-1.3,0c0-0.4,0-0.9,0-1.5C16.3,11.4,16.8,11.4,17.2,11.3
		C17.3,11.4,17.2,11.3,17.2,11.3z"/>
	<path class="st0" d="M60.6,5c-0.5,0-0.8,0-1.3,0c0-0.5,0-0.9-0.1-1.5c0.5,0,0.9,0,1.4,0C60.6,4,60.6,4.5,60.6,5z"/>
	<path class="st0" d="M69.5,3.5c0.5,0,0.8,0,1.3,0c0,0.5,0,0.9,0.1,1.5c-0.5,0-0.9,0-1.4,0C69.5,4.5,69.5,4,69.5,3.5z"/>
	<path class="st0" d="M76.6,3.5c0.4,0,0.9,0,1.4,0c0,0.5,0,0.9,0,1.5c-0.4,0-0.8,0-1.3,0C76.6,4.4,76.6,3.9,76.6,3.5
		C76.6,3.4,76.6,3.5,76.6,3.5z"/>
	<path class="st0" d="M86.7,5c0-0.5,0-0.9,0-1.4c0.4,0,0.9,0,1.3,0C88,4,88,4.5,88,5C87.6,5,87.2,5,86.7,5z"/>
	<path class="st0" d="M92.6,5c-0.4,0-0.8,0-1.3,0c0-0.5,0-0.9,0-1.4c0.4,0,0.8,0,1.3,0C92.6,4,92.6,4.4,92.6,5z"/>
	<path class="st0" d="M105.6,3.5c0,0.5,0,1,0,1.4c-0.4,0-0.8,0-1.3,0c0-0.4,0-0.9,0-1.4C104.7,3.5,105.1,3.5,105.6,3.5z"/>
	<path class="st0" d="M111.3,5c-0.5,0-0.9,0-1.3,0c0-0.5,0-0.9,0-1.5c0.4,0,0.8,0,1.3,0C111.3,4,111.3,4.4,111.3,5z"/>
	<path class="st0" d="M114.2,3.5c0,0.5,0,0.9,0,1.4c-0.4,0-0.8,0-1.3,0c0-0.4,0-0.9,0-1.4C113.3,3.5,113.8,3.5,114.2,3.5z"/>
	<path class="st0" d="M10,6.6c-0.4,0-0.8,0-1.3,0c0-0.4,0-0.9,0-1.4c0.4,0,0.8,0,1.3,0C10,5.6,10,6,10,6.6z"/>
	<path class="st0" d="M20.2,5.1c0.5,0,0.9,0,1.3,0c0,0.5,0,0.9,0,1.4c-0.4,0-0.8,0-1.3,0C20.2,6.1,20.2,5.6,20.2,5.1z"/>
	<path class="st0" d="M30.5,6.6c0-0.5,0-0.9,0-1.4c0.4,0,0.9,0,1.3,0c0,0.5,0,0.9,0,1.4C31.4,6.6,31,6.6,30.5,6.6z"/>
	<path class="st0" d="M37.7,5.1c0.4,0,0.8,0,1.3,0c0,0.5,0,0.9,0,1.4c-0.4,0-0.8,0-1.3,0C37.7,6.1,37.7,5.7,37.7,5.1z"/>
	<path class="st0" d="M49.2,6.6c0-0.5,0-0.9,0-1.4c0.4,0,0.9,0,1.3,0c0,0.5,0,0.9,0,1.4C50.1,6.6,49.7,6.6,49.2,6.6z"/>
	<path class="st0" d="M62.2,5.1c0.4,0,0.8,0,1.3,0c0,0.5,0,0.9,0,1.4c-0.4,0-0.8,0-1.3,0C62.2,6.1,62.2,5.7,62.2,5.1z"/>
	<path class="st0" d="M67.8,6.6c-0.5,0-0.9,0-1.3,0c0-0.5,0-0.9,0-1.4c0.4,0,0.8,0,1.3,0C67.8,5.6,67.8,6,67.8,6.6z"/>
	<path class="st0" d="M95.5,6.6c-0.5,0-0.9,0-1.3,0c0-0.5,0-0.9,0-1.5c0.4,0,0.8,0,1.3,0C95.5,5.6,95.5,6,95.5,6.6z"/>
	<path class="st0" d="M17.2,25.6c0.5,0,0.9,0,1.4,0c0,0.6,0,1.1,0,1.6c0,0,0,0,0,0c-0.5,0-1,0-1.5,0C17.2,26.7,17.2,26.1,17.2,25.6
		L17.2,25.6z"/>
	<path class="st0" d="M99.8,6.6c-0.5,0-0.9,0-1.3,0c0-0.5,0-0.9,0-1.5c0.4,0,0.8,0,1.3,0C99.8,5.6,99.8,6,99.8,6.6z"/>
	<path class="st0" d="M107.2,5.1c0.5,0,0.8,0,1.3,0c0,0.5,0,0.9,0.1,1.5c-0.5,0-0.9,0-1.4,0C107.2,6,107.2,5.6,107.2,5.1z"/>
	<path class="st0" d="M13,8.1c0-0.5,0-0.9,0-1.4c0.4,0,0.9,0,1.3,0c0,0.5,0,0.9,0,1.4C13.9,8.1,13.5,8.1,13,8.1z"/>
	<path class="st0" d="M92.6,24.1c0.5,0,0.9,0,1.5-0.1c0,0.6,0,1.1,0,1.6l0,0c-0.5,0-1,0-1.5,0c0,0,0,0,0,0
		C92.7,25.1,92.7,24.6,92.6,24.1C92.6,24,92.6,24.1,92.6,24.1z"/>
	<path class="st0" d="M18.6,8.1c-0.5,0-0.8,0-1.3,0c0-0.5,0-1,0-1.5c0.4,0,0.8,0,1.3,0C18.6,7.1,18.6,7.6,18.6,8.1z"/>
	<path class="st0" d="M5.7,4.9c0-0.5,0-0.9,0-1.4c0.4,0,0.8,0,1.3-0.1c0,0.5,0,1,0,1.5C6.6,4.9,6.2,4.9,5.7,4.9z"/>
	<path class="st0" d="M11.5,3.5c0.4,0,0.8,0,1.3,0c0,0.4,0,0.9,0,1.4c-0.4,0-0.8,0-1.3,0C11.5,4.5,11.5,4,11.5,3.5z"/>
	<path class="st0" d="M15.9,3.5c0.4,0,0.8,0,1.3,0c0,0.4,0,0.9,0,1.4c-0.4,0-0.8,0-1.3,0C15.9,4.5,15.9,4,15.9,3.5z"/>
	<path class="st0" d="M25.9,3.5c0.4,0,0.9,0,1.4,0c0,0.5,0,0.9,0,1.5c-0.4,0-0.8,0-1.3,0C25.9,4.4,25.9,3.9,25.9,3.5
		C25.9,3.4,25.9,3.5,25.9,3.5z"/>
	<path class="st0" d="M42,3.6c0,0.5,0,0.9,0,1.4c-0.4,0-0.8,0-1.3,0.1c0-0.5,0-1,0-1.5C41.1,3.6,41.5,3.6,42,3.6z"/>
	<path class="st0" d="M56.4,3.5c0.4,0,0.9,0,1.4,0c0,0.5,0,0.9,0,1.5c-0.4,0-0.8,0-1.3,0C56.4,4.4,56.4,3.9,56.4,3.5
		C56.4,3.4,56.4,3.5,56.4,3.5z"/>
	<path class="st0" d="M94.1,25.6c0.5,0,1,0,1.5,0c0,0,0,0,0,0c0,0.5,0,1.1,0,1.6c0,0,0,0,0,0c-0.5,0-1,0-1.5,0
		C94.1,26.7,94.1,26.1,94.1,25.6C94.1,25.6,94.1,25.6,94.1,25.6z"/>
	<path class="st0" d="M12.9,24c0-0.5,0-1,0-1.5c0.5,0,0.9,0,1.4,0c0,0.5,0,1,0,1.5c0,0,0,0,0,0C13.9,24,13.4,24,12.9,24L12.9,24z"/>
	<path class="st0" d="M10,22.5c0.5,0,0.9,0,1.4,0c0,0.6,0,1.1,0,1.6l0,0c-0.5,0-1,0-1.5,0C10,23.5,10,23,10,22.5L10,22.5z"/>
	<path class="st0" d="M7.1,22.4c0.5,0,1,0,1.5,0l0,0c0,0.5,0,1.1,0,1.6c-0.5,0-1,0-1.5,0l0,0C7.2,23.5,7.2,23,7.1,22.4L7.1,22.4z"/>
	<path class="st0" d="M5.7,24c-0.4,0-0.9,0-1.5,0c0-0.6,0-1.1,0-1.6c0.5,0,1,0,1.5,0c0,0,0,0,0,0C5.7,23,5.7,23.5,5.7,24L5.7,24z"/>
	<path class="st0" d="M111.4,22.4c0-0.5,0-1.1,0-1.6l0,0c0.5,0,0.9,0,1.4,0c0,0.6,0,1,0,1.5C112.3,22.4,111.8,22.4,111.4,22.4
		L111.4,22.4z"/>
	<path class="st0" d="M92.7,22.4c0-0.6,0-1.1,0-1.7c0,0,0,0,0,0c0.4,0,0.9,0,1.3,0.1c0,0.5,0,0.9,0,1.5
		C93.6,22.4,93.1,22.4,92.7,22.4L92.7,22.4z"/>
	<path class="st0" d="M72.3,22.4c0-0.5,0-1.1,0-1.6l0,0c0.4,0,0.9,0,1.4,0c0,0.6,0,1.1,0,1.6c0,0,0,0,0,0
		C73.2,22.4,72.7,22.4,72.3,22.4L72.3,22.4z"/>
	<path class="st0" d="M63.6,22.4c0-0.5,0-1.1,0-1.6l0,0c0.4,0,0.9,0,1.4,0c0,0.6,0,1.1,0,1.6l0,0C64.6,22.4,64.1,22.4,63.6,22.4
		C63.6,22.4,63.6,22.4,63.6,22.4z"/>
	<path class="st0" d="M52.1,22.4c-0.4,0-0.9,0-1.4,0c0-0.5,0-0.9,0-1.5c0.4,0,0.8,0,1.3,0C52.1,21.4,52.1,21.9,52.1,22.4
		C52.1,22.5,52.1,22.4,52.1,22.4z"/>
	<path class="st0" d="M36.2,22.4c-0.4,0-0.9,0-1.4,0c0-0.5,0-0.9,0-1.5c0.4,0,0.8,0,1.3,0C36.2,21.4,36.2,21.9,36.2,22.4
		C36.2,22.5,36.2,22.4,36.2,22.4z"/>
	<path class="st0" d="M15.8,20.9c0.4,0,0.9,0,1.4,0c0,0.5,0,0.9,0,1.5c-0.4,0-0.8,0-1.3,0C15.8,21.8,15.8,21.3,15.8,20.9L15.8,20.9z
		"/>
	<path class="st0" d="M8.6,22.5c0-0.5,0-1,0-1.5c0.5,0,0.9,0,1.4,0c0,0.5,0,1,0,1.5c0,0,0,0,0,0C9.6,22.4,9.1,22.4,8.6,22.5
		L8.6,22.5z"/>
	<path class="st0" d="M4.3,22.4c-0.5,0-0.9,0-1.5,0c0-0.6,0-1.1,0-1.6c0.5,0,0.9,0,1.5,0C4.3,21.5,4.3,22,4.3,22.4z"/>
	<path class="st0" d="M52.1,8.1c0-0.5,0-0.9,0-1.4c0.4,0,0.8,0,1.3,0c0,0.4,0,0.9,0,1.4C53,8.1,52.6,8.1,52.1,8.1z"/>
	<path class="st0" d="M117.2,19.2c0,0.5,0,1,0,1.6c-0.6,0-1,0-1.5,0l0,0c0-0.5,0-1.1,0-1.6c0,0,0,0,0,0
		C116.2,19.3,116.7,19.3,117.2,19.2z"/>
	<path class="st0" d="M111.4,20.8c-0.4,0-0.9,0-1.4,0c0-0.5,0-0.9,0-1.5c0.5,0,0.9,0,1.4,0c0,0,0,0,0,0
		C111.4,19.8,111.4,20.3,111.4,20.8L111.4,20.8z"/>
	<path class="st0" d="M80.8,6.7c0,0.5,0,0.9,0,1.4c-0.4,0-0.8,0-1.3,0c0-0.4,0-0.9,0-1.4C79.9,6.7,80.3,6.7,80.8,6.7z"/>
	<path class="st0" d="M85.1,8.2c-0.5,0-0.8,0-1.3,0c0-0.5,0-0.9-0.1-1.5c0.5,0,0.9,0,1.4,0C85.1,7.2,85.1,7.7,85.1,8.2z"/>
	<path class="st0" d="M82.4,20.9c0-0.5,0-0.9,0-1.5c0.5,0,1,0,1.5,0c0,0,0,0,0,0c0,0.5,0,0.9-0.1,1.5C83.2,20.8,82.8,20.8,82.4,20.9
		C82.3,20.8,82.4,20.9,82.4,20.9z"/>
	<path class="st0" d="M76.6,20.8c-0.4,0-0.9,0-1.4,0c0-0.5,0-0.9-0.1-1.5c0.5,0,1,0,1.5,0c0,0,0,0,0,0
		C76.6,19.8,76.6,20.3,76.6,20.8C76.6,20.9,76.6,20.8,76.6,20.8z"/>
	<path class="st0" d="M72.3,20.8c-0.4,0-0.9,0-1.4,0c0-0.5,0-0.9-0.1-1.5c0.5,0,1,0,1.5,0c0,0,0,0,0,0
		C72.3,19.8,72.3,20.3,72.3,20.8C72.2,20.9,72.3,20.8,72.3,20.8z"/>
	<path class="st0" d="M67.9,20.8c-0.4,0-0.9,0-1.4,0c0-0.6,0-1.1,0-1.6c0,0,0,0,0,0c0.5,0,1,0.1,1.5,0.1c0,0,0,0,0,0
		C67.9,19.8,67.9,20.3,67.9,20.8C67.9,20.9,67.9,20.8,67.9,20.8z"/>
	<path class="st0" d="M63.6,20.8c-0.4,0-0.9,0-1.4,0c0-0.5,0-0.9,0-1.5c0.4,0,0.8,0,1.3,0C63.6,19.9,63.6,20.4,63.6,20.8
		C63.6,20.9,63.6,20.8,63.6,20.8z"/>
	<path class="st0" d="M117.2,8.1c0-0.5,0-0.9,0-1.4c0.4,0,0.8,0,1.3-0.1c0,0.5,0,1,0,1.5C118.1,8.1,117.6,8.1,117.2,8.1z"/>
	<path class="st0" d="M23,19.3c0.4,0,0.9,0,1.4,0c0,0.6,0,1.1,0,1.6c0,0,0,0,0,0c-0.4,0-0.9,0-1.4-0.1C23,20.3,23,19.8,23,19.3
		C23,19.2,23,19.3,23,19.3z"/>
	<path class="st0" d="M2.9,9.7c0-0.5,0-0.9,0-1.4c0.4,0,0.9,0,1.3,0c0,0.5,0,0.9,0,1.4C3.8,9.7,3.4,9.7,2.9,9.7z"/>
	<path class="st0" d="M15.8,20.8c-0.4,0-0.9,0-1.4,0c0-0.6,0-1.1,0-1.6c0,0,0,0,0,0c0.4,0,0.9,0,1.4,0.1
		C15.8,19.9,15.8,20.4,15.8,20.8C15.8,20.9,15.8,20.8,15.8,20.8z"/>
	<path class="st0" d="M79.4,24c0.5,0,1,0,1.5,0c0,0,0,0,0,0c0,0.5,0,1,0,1.6c-0.5,0-1,0-1.4,0l0,0C79.5,25.1,79.5,24.5,79.4,24
		L79.4,24z"/>
	<path class="st0" d="M76.6,25.6c0-0.5,0-1,0-1.6c0.5,0,1,0,1.4,0c0,0,0,0,0,0c0,0.5,0,1.1,0,1.6l0,0C77.5,25.6,77,25.6,76.6,25.6
		L76.6,25.6z"/>
	<path class="st0" d="M69.3,24c0.5,0,1,0,1.5,0l0,0c0,0.5,0,1.1,0,1.6c-0.5,0-1,0-1.5,0C69.4,25.1,69.4,24.5,69.3,24L69.3,24z"/>
	<path class="st0" d="M66.5,24c0.5,0,1,0,1.5,0c0,0,0,0,0,0c0,0.5,0,1.1,0,1.6c-0.5,0-1,0-1.5,0C66.5,25.1,66.5,24.5,66.5,24
		L66.5,24z"/>
	<path class="st0" d="M63.6,25.6c0-0.5,0-1.1,0-1.6l0,0c0.5,0,1,0,1.5,0c0,0,0,0,0,0c0,0.5,0,1.1,0,1.6
		C64.6,25.6,64.1,25.6,63.6,25.6L63.6,25.6z"/>
	<path class="st0" d="M56.4,24c0,0.5,0,1.1,0,1.6c0,0,0,0,0,0c-0.5,0-1,0-1.5,0c0,0,0,0,0,0c0-0.5,0-1,0-1.6C55.5,24,56,24,56.4,24
		C56.4,24,56.4,24,56.4,24z"/>
	<path class="st0" d="M49.2,24c0.5,0,0.9,0,1.4,0c0,0.6,0,1.1,0,1.6c0,0,0,0,0,0c-0.5,0-1,0-1.5,0c0,0,0,0,0,0
		C49.2,25.1,49.2,24.5,49.2,24C49.2,24,49.2,24,49.2,24z"/>
	<path class="st0" d="M33.3,24c0.5,0,0.9,0,1.4,0c0,0.6,0,1.1,0,1.6c0,0,0,0,0,0c-0.5,0-1,0-1.5,0l0,0C33.4,25.1,33.4,24.5,33.3,24
		L33.3,24z"/>
	<path class="st0" d="M30.4,24c0.5,0,1,0,1.5,0c0,0,0,0,0,0c0,0.5,0,1.1,0,1.6l0,0c-0.5,0-0.9,0-1.4,0C30.5,25,30.5,24.5,30.4,24
		L30.4,24z"/>
	<path class="st0" d="M34.8,8.2c-0.4,0-0.9,0-1.4,0c0-0.5,0-0.9,0-1.5c0.4,0,0.8,0,1.3,0C34.8,7.2,34.8,7.7,34.8,8.2
		C34.8,8.2,34.8,8.2,34.8,8.2z"/>
	<path class="st0" d="M23,24c0.5,0,0.9,0,1.4,0c0,0.6,0,1.1,0,1.6c0,0,0,0,0,0c-0.5,0-1,0-1.5,0c0,0,0,0,0,0C23,25.1,23,24.5,23,24
		C23,24,23,24,23,24z"/>
	<path class="st0" d="M11.5,24c0.5,0,1,0,1.5,0c0,0,0,0,0,0c0,0.5,0,1.1,0,1.6c-0.5,0-1,0-1.5,0C11.5,25.1,11.5,24.5,11.5,24
		C11.5,24,11.5,24,11.5,24z"/>
	<path class="st0" d="M111.4,24c-0.4,0-0.9,0-1.4,0c0-0.5,0-1,0-1.5c0.5,0,0.9,0,1.4,0c0,0,0,0,0,0C111.4,23,111.4,23.5,111.4,24
		L111.4,24z"/>
	<path class="st0" d="M92.7,22.4c0,0.6,0,1.1,0,1.7c0,0,0,0,0,0c-0.4,0-0.9,0-1.3-0.1c0-0.5,0-0.9,0-1.5
		C91.8,22.4,92.2,22.4,92.7,22.4C92.7,22.4,92.7,22.4,92.7,22.4z"/>
	<path class="st0" d="M83.8,24c0-0.5,0-1,0-1.6c0.5,0,1,0,1.4,0c0,0,0,0,0,0c0,0.5,0,1.1,0,1.6C84.7,24,84.3,24,83.8,24L83.8,24z"/>
	<path class="st0" d="M70.8,24c0-0.5,0-1,0-1.6c0.5,0,1,0,1.4,0c0,0,0,0,0,0c0,0.5,0,1,0,1.6C71.7,24,71.2,24,70.8,24L70.8,24z"/>
	<path class="st0" d="M65,22.4c0.5,0,0.9,0,1.4,0c0,0.6,0,1.1,0,1.6c0,0,0,0,0,0c-0.5,0-1,0-1.5,0l0,0C65.1,23.5,65.1,23,65,22.4
		L65,22.4z"/>
	<path class="st0" d="M63.6,24c-0.4,0-0.9,0-1.4,0c0-0.5,0-0.9,0-1.5c0.5,0,0.9,0,1.4,0c0,0,0,0,0,0C63.6,23,63.6,23.5,63.6,24
		L63.6,24z"/>
	<path class="st0" d="M39.1,22.4c0.5,0,0.9,0,1.4,0c0,0.6,0,1.1,0,1.6c0,0,0,0,0,0c-0.5,0-0.9,0-1.4,0
		C39.1,23.4,39.1,22.9,39.1,22.4L39.1,22.4z"/>
	<path class="st0" d="M5.7,25.6c0,0.5,0,1,0,1.6c-1,0-2,0-2.9,0c0,0,0,0,0,0c0-0.5,0-1.1,0-1.6l0,0C3.8,25.6,4.8,25.6,5.7,25.6z"/>
	<path class="st0" d="M7.1,24c0,0.5,0,1.1,0,1.6c-0.5,0-1,0-1.5,0c0-0.5,0-1.1,0-1.6c0,0,0,0,0,0C6.2,24,6.7,24,7.1,24L7.1,24z"/>
	<path class="st0" d="M1.4,25.6c0-0.5,0-1.1,0-1.6c0.5,0,0.9,0,1.4,0c0,0.6,0,1.1,0,1.6c0,0,0,0,0,0C2.4,25.6,1.9,25.6,1.4,25.6
		L1.4,25.6z"/>
	<path class="st0" d="M115.7,20.8c0,0.5,0,1,0,1.5c0.5,0.1,0.9,0.1,1.4,0.2c0,0.5,0,1,0,1.5c0,0,0,0,0,0c-0.9,0-1.9,0-2.8,0
		c0-1.1,0-2.1,0-3.1C114.9,20.9,115.3,20.9,115.7,20.8L115.7,20.8z"/>
	<path class="st0" d="M118.6,24c0,0.5,0,1.1,0,1.6c0,0,0,0,0,0c-0.5,0-1,0-1.5,0c0-0.5,0-1.1,0-1.6c0,0,0,0,0,0
		C117.6,24,118.1,24,118.6,24z"/>
	<path class="st0" d="M2.8,31.9c0-0.5,0-1,0-1.6c-0.5,0-1,0-1.4,0c0-1.1,0-2.1,0-3.2c0,0,0,0,0,0c0.5,0,1,0,1.5,0c0,0,0,0,0,0
		c0,0.5,0,1,0,1.6c1,0,1.9,0,2.9,0c0,0.6,0,1.1,0,1.6c0,0,0,0,0,0c-0.5,0-0.9,0-1.5,0c0,0.6,0,1.1,0,1.6l0,0
		C3.8,31.9,3.3,31.9,2.8,31.9z"/>
	<path class="st0" d="M28.8,30.4c0-1.1,0-2.1,0-3.2c0.5,0,1,0,1.7,0c0,1.1,0,2.2,0,3.2C29.9,30.4,29.3,30.4,28.8,30.4z"/>
	<path class="st0" d="M7.2,30.3c0,0.5,0,1.1,0,1.6l0,0c-0.5,0-1,0-1.5,0l0,0c0-0.5,0-1.1,0-1.6c0,0,0,0,0,0
		C6.2,30.3,6.7,30.3,7.2,30.3z"/>
	<path class="st0" d="M37.6,25.6c1,0,1.9,0,2.9,0c0,0.5,0,1,0,1.5c0.5,0.1,0.9,0.1,1.4,0.2c0,1,0,2.1,0,3.1c-0.5,0-1,0-1.5,0
		c0-0.5,0-0.9,0-1.5c-0.4-0.1-0.9-0.1-1.3-0.2c0-0.4-0.1-0.9-0.1-1.4c-0.4,0-0.8-0.1-1.3-0.1C37.7,26.6,37.7,26.1,37.6,25.6z"/>
	<path class="st0" d="M83.8,28.8c0-0.5,0-1.1,0-1.6c1,0,1.9,0,2.9,0c0,1.6,0,3.2,0,4.8c-0.5,0-1,0-1.5,0c0-1,0-2,0-3.2
		C84.7,28.8,84.2,28.8,83.8,28.8z"/>
	<path class="st0" d="M86.6,27.2c0-0.5,0-1.1,0-1.6c0.5,0,1,0,1.5,0c0,0.5,0,1.1,0,1.6C87.6,27.2,87.1,27.2,86.6,27.2z"/>
	<path class="st0" d="M70.8,25.6c1,0,1.9,0,2.9,0c0,1.6,0,3.2,0,4.8c-0.5,0-1,0-1.5,0c0-1,0-2,0-3.1c-0.5-0.1-0.9-0.1-1.4-0.2
		C70.8,26.6,70.8,26.1,70.8,25.6z"/>
	<path class="st0" d="M67.9,25.6c0.5,0,1,0,1.5,0c0,1.1,0,2.1,0,3.2c-0.5,0-1,0-1.5,0C67.9,27.7,67.9,26.6,67.9,25.6z"/>
	<path class="st0" d="M69.4,30.4c0-0.5,0-1.1,0-1.6c0.5,0,0.9,0,1.5,0c0,0.6,0,1.1,0,1.6C70.3,30.4,69.8,30.4,69.4,30.4z"/>
	<path class="st0" d="M65,25.6c0.5,0,1,0,1.5,0c0,0.5,0,1,0,1.6c-0.6,0-1,0-1.5,0C65,26.7,65,26.1,65,25.6z"/>
	<path class="st0" d="M67.9,28.7c0,0.5,0,1.1,0,1.6c-0.5,0-1,0-1.5,0c0-0.5,0-1,0-1.6C67,28.7,67.5,28.7,67.9,28.7z"/>
	<path class="st0" d="M82.4,27.2c0,0.5,0,1.1,0,1.6c-0.5,0-1,0-1.5,0c0-0.5,0-1,0-1.6C81.5,27.2,81.9,27.2,82.4,27.2z"/>
	<path class="st0" d="M11.5,27.2c0.5,0,1,0,1.5,0l0,0c0,1.1,0,2.1,0,3.2l0,0c-0.5,0-1,0-1.5,0C11.5,29.3,11.5,28.2,11.5,27.2z"/>
	<path class="st0" d="M11.5,25.6c0,0.5,0,1.1,0,1.6c-0.5,0-0.9,0-1.5,0c0-0.6,0-1.1,0-1.6C10.5,25.6,11,25.6,11.5,25.6z"/>
	<path class="st0" d="M10.1,24c0,0.5,0,1.1,0,1.6c-0.5,0-1,0-1.5,0c0-0.5,0-1.1,0-1.6C9.1,24,9.6,24,10.1,24z"/>
	<path class="st0" d="M101.3,30.3c0,0.5,0,1.1,0,1.6c-0.5,0-1,0-1.5,0c0-0.5,0-1,0-1.6C100.4,30.3,100.9,30.3,101.3,30.3z"/>
	<path class="st0" d="M7.1,31.9c0.5,0,1,0,1.5,0c0,1.1,0,2.2,0,3.4c1,0,1.9,0,2.9,0c0,0.5,0,1.1,0,1.6c-0.5,0-0.9,0-1.4,0
		c0,0.6,0,1.1,0,1.6c-0.5,0-1,0-1.5,0c0-0.5,0-1,0-1.5c-0.5,0-0.9,0-1.4,0c0,0.5,0,1,0,1.5c-0.5,0-1,0-1.5,0c0-1,0-2,0-3.2
		c-0.5,0-1,0-1.4,0c0-1.2,0-2.3,0-3.5c0,0,0,0,0,0c0.5,0,1,0,1.5,0c0,0,0,0,0,0c0,0.6,0,1.2,0,1.8c0.6,0,1,0,1.5,0
		C7.2,33,7.2,32.5,7.1,31.9L7.1,31.9z"/>
	<path class="st0" d="M92.7,27.2c0.5,0,1,0,1.5,0c0,1.1,0,2.1,0,3.2c-0.5,0-1,0-1.5,0C92.7,29.3,92.7,28.2,92.7,27.2z"/>
	<path class="st0" d="M109.9,30.3c1,0,1.9,0,2.9,0c0,0.5,0,1.1,0,1.6c-1,0-1.9,0-2.9,0C109.9,31.4,109.9,30.9,109.9,30.3z"/>
	<path class="st0" d="M82.3,28.7c0.5,0,1,0,1.5,0c0,1.1,0,2.1,0,3.2c-0.5,0-1,0-1.5,0C82.3,30.9,82.3,29.8,82.3,28.7z"/>
	<path class="st0" d="M17.3,27.2c0,1.1,0,2.1,0,3.2c-1,0-1.9,0-2.9,0c0,0,0,0,0,0c0-1.1,0-2.1,0-3.2l0,0
		C15.3,27.2,16.3,27.2,17.3,27.2z"/>
	<path class="st0" d="M18.7,30.3c0,0.5,0,1.1,0,1.6c-0.5,0-1,0-1.5,0c0-0.5,0-1.1,0-1.6C17.7,30.3,18.2,30.3,18.7,30.3z"/>
	<path class="st0" d="M12.9,31.9c0-0.5,0-1.1,0-1.6c0,0,0,0,0,0c0.5,0,1,0,1.5,0c0,0,0,0,0,0c0,0.5,0,1.1,0,1.6
		C13.9,31.9,13.4,31.9,12.9,31.9z"/>
	<path class="st0" d="M52.1,30.3c0.5,0,1,0,1.5,0c0,0.5,0,1.1,0,1.6c-0.5,0-1,0-1.5,0C52.1,31.4,52.1,30.9,52.1,30.3z"/>
	<path class="st0" d="M27.3,35.4c0-0.5,0-1.1,0-1.6c0.5,0,1,0,1.5,0c0,0.5,0,1.1,0,1.6C28.3,35.4,27.8,35.4,27.3,35.4z"/>
	<path class="st0" d="M18.7,31.9c0.5,0,1,0,1.5,0c0,0.6,0,1.3,0,1.9c-0.5,0-1,0-1.5,0C18.7,33.2,18.7,32.5,18.7,31.9z"/>
	<path class="st0" d="M21.6,33.7c0,0.5,0,1.1,0,1.6c-0.5,0-1,0-1.5,0c0-0.5,0-1.1,0-1.6C20.6,33.7,21.1,33.7,21.6,33.7z"/>
	<path class="st0" d="M20.1,31.9c0-0.5,0-1.1,0-1.6c0.5,0,1,0,1.5,0c0,0.5,0,1.1,0,1.6C21.1,31.9,20.6,31.9,20.1,31.9z"/>
	<path class="st0" d="M73.7,30.3c0.5,0,1,0,1.5,0c0,0.5,0,1.1,0,1.6c-0.5,0-1,0-1.5,0C73.7,31.4,73.7,30.9,73.7,30.3z"/>
	<path class="st0" d="M114.3,27.2c0-0.5,0-1,0-1.6c1,0,2,0,2.9,0c0,0.5,0,1.1,0,1.6C116.2,27.2,115.2,27.2,114.3,27.2z"/>
	<path class="st0" d="M86.7,25.6c-0.5,0-0.9,0-1.5,0c0-0.6,0-1.1,0-1.6c0.5,0,0.9,0,1.5,0C86.7,24.6,86.7,25.1,86.7,25.6z"/>
	<path class="st0" d="M12.9,27.2c0-0.5,0-1.1,0-1.6c0.5,0,1,0,1.5,0c0,0.5,0,1.1,0,1.6c0,0,0,0,0,0C13.9,27.2,13.4,27.2,12.9,27.2
		L12.9,27.2z"/>
</g>
</svg>
